<mxfile host="app.diagrams.net" modified="2023-04-03T08:12:24.234Z" agent="Mozilla/5.0 (Windows NT 10.0; Win64; x64) AppleWebKit/537.36 (KHTML, like Gecko) Chrome/107.0.0.0 Safari/537.36" etag="X_sCtjTgMRbFlixVkLGW" version="21.1.2" type="github">
  <diagram name="第 1 页" id="3mYIeyJFuPweL8t6txSv">
    <mxGraphModel dx="1920" dy="946" grid="0" gridSize="10" guides="1" tooltips="1" connect="1" arrows="1" fold="1" page="0" pageScale="1" pageWidth="827" pageHeight="1169" math="0" shadow="0">
      <root>
        <mxCell id="0" />
        <mxCell id="1" parent="0" />
        <mxCell id="4SHipQYe5DLUAEDX2a7b-7" value="User" style="swimlane;fontStyle=0;childLayout=stackLayout;horizontal=1;startSize=30;horizontalStack=0;resizeParent=1;resizeParentMax=0;resizeLast=0;collapsible=1;marginBottom=0;whiteSpace=wrap;html=1;fontSize=16;" vertex="1" parent="1">
          <mxGeometry x="-300" y="-19" width="140" height="90" as="geometry">
            <mxRectangle x="-300" y="-19" width="60" height="31" as="alternateBounds" />
          </mxGeometry>
        </mxCell>
        <mxCell id="4SHipQYe5DLUAEDX2a7b-9" value="email" style="text;strokeColor=none;fillColor=none;align=left;verticalAlign=middle;spacingLeft=4;spacingRight=4;overflow=hidden;points=[[0,0.5],[1,0.5]];portConstraint=eastwest;rotatable=0;whiteSpace=wrap;html=1;fontSize=16;" vertex="1" parent="4SHipQYe5DLUAEDX2a7b-7">
          <mxGeometry y="30" width="140" height="30" as="geometry" />
        </mxCell>
        <mxCell id="4SHipQYe5DLUAEDX2a7b-10" value="role" style="text;strokeColor=none;fillColor=none;align=left;verticalAlign=middle;spacingLeft=4;spacingRight=4;overflow=hidden;points=[[0,0.5],[1,0.5]];portConstraint=eastwest;rotatable=0;whiteSpace=wrap;html=1;fontSize=16;" vertex="1" parent="4SHipQYe5DLUAEDX2a7b-7">
          <mxGeometry y="60" width="140" height="30" as="geometry" />
        </mxCell>
        <mxCell id="4SHipQYe5DLUAEDX2a7b-12" value="Finger" style="swimlane;fontStyle=0;childLayout=stackLayout;horizontal=1;startSize=30;horizontalStack=0;resizeParent=1;resizeParentMax=0;resizeLast=0;collapsible=1;marginBottom=0;whiteSpace=wrap;html=1;fontSize=16;" vertex="1" parent="1">
          <mxGeometry x="-302" y="116" width="140" height="221" as="geometry">
            <mxRectangle x="-302" y="116" width="80" height="31" as="alternateBounds" />
          </mxGeometry>
        </mxCell>
        <mxCell id="4SHipQYe5DLUAEDX2a7b-13" value="is_right" style="text;strokeColor=none;fillColor=none;align=left;verticalAlign=middle;spacingLeft=4;spacingRight=4;overflow=hidden;points=[[0,0.5],[1,0.5]];portConstraint=eastwest;rotatable=0;whiteSpace=wrap;html=1;fontSize=16;" vertex="1" parent="4SHipQYe5DLUAEDX2a7b-12">
          <mxGeometry y="30" width="140" height="30" as="geometry" />
        </mxCell>
        <mxCell id="4SHipQYe5DLUAEDX2a7b-14" value="value" style="text;strokeColor=none;fillColor=none;align=left;verticalAlign=middle;spacingLeft=4;spacingRight=4;overflow=hidden;points=[[0,0.5],[1,0.5]];portConstraint=eastwest;rotatable=0;whiteSpace=wrap;html=1;fontSize=16;" vertex="1" parent="4SHipQYe5DLUAEDX2a7b-12">
          <mxGeometry y="60" width="140" height="30" as="geometry" />
        </mxCell>
        <mxCell id="4SHipQYe5DLUAEDX2a7b-15" value="method&lt;br&gt;location&lt;br&gt;path&lt;br&gt;add_time&lt;br&gt;app&lt;br&gt;user" style="text;strokeColor=none;fillColor=none;align=left;verticalAlign=middle;spacingLeft=4;spacingRight=4;overflow=hidden;points=[[0,0.5],[1,0.5]];portConstraint=eastwest;rotatable=0;whiteSpace=wrap;html=1;fontSize=16;" vertex="1" parent="4SHipQYe5DLUAEDX2a7b-12">
          <mxGeometry y="90" width="140" height="131" as="geometry" />
        </mxCell>
        <mxCell id="4SHipQYe5DLUAEDX2a7b-16" value="" style="shape=image;verticalLabelPosition=bottom;labelBackgroundColor=default;verticalAlign=top;aspect=fixed;imageAspect=0;image=data:image/png,iVBORw0KGgoAAAANSUhEUgAAA30AAAAxCAYAAABu+MAzAAAQ1UlEQVR4nO3dT2hb55rH8a/tzi00o5nOxYJMnIErpU2xQY5XMnUwBILpLnYEWXQhtLBIbxazstHOWMY7k6zTFnkhzNBFQZG9KyYQMFGxVrYFNu1CnkUSCjL35s5pO9zesT2Lc470nqM/dhrbCtLvAwbrHP05kt7z6jzv+7zv2zM8PHKMiIiIiIiIdKTedh+AiIiIiIiInB8FfSIiIiIiIh1MQZ+IiIiIiEgHe+/KlX9v9zGIiIiIiIjIOem5du0jTeQiIiIiIiLSoZTeKSIiIiIi0sEU9ImIiIiIiHQwBX0iIiIiIiIdTEGfiIiIiIhIB1PQJyIiIiIi0sEU9ImIiIiIiHQwBX0iIiIiIiIdTEGfiIiIiIhIB3uv3QcgIiIiIiJyZv65j55/64O+nnYfydk4POb4r4fw8+Hvfgr19ImIiIiISMfoqIAPoK/Hfk9vQUGfiIiIiIh0jk4K+Fxv+Z4U9ImIiIiIiHQwBX0iIiIiIiIdTEGfiIiIiIhIB9PsnSLdZjFPaSpcu72fI7I94t1msIqPGJvOGlsSZAozDO35tzcRz1BIRQl4n5SHYxuMF2YY9e5gc+kmyZXTvx1pIZ6h8AC+GkuSJc1qaYStyBTzgP093ofHDT7vxTyl2wc8HEuSNZ8r1c969fHStS6qXDWqO1pS/fFm7Lp8tOUH3OwzbfY9+8uDyLvsfXrT/Zw0Uu74h584+qbRrJl99KQu07P9kqPvWrxG6j2Oln7xbO358wA9+60ed/YuoKcvQaawQ2E50eR2bVupZPytpc//0ETabGGtQVmPZyiU/OcI9gVTKc/CSU8az1AoPScTb3Efq8jDyDAPi1bdtojxl9uHyqv6gG80AIHojPecNf5WF/0vWCbnPm++7N2Td18vR9n/MHkLCTIPBtl9/IJYIUOtNKVZLWRIECLIHhsNLpATV4JYexuY3/zCvSgUn7S+kItnKBQyJEiz2qgMm8dg7E8sP6fkOcZ3xGK+WqYLy//F6knnVVe4wHK1kmTMrTeWilhmPRIZJhJ5xKZl1iHdHPDZ11H1dS/Y51vzslv7/Px/9ufbWJbk4z2GUubzJsgUYpBXwHdaDa8BLuCx4vo7R+mXHLb6++G32t0/+5C+9IDxd5neD6Dn0wHf9gF6P2v9ysffv4ZPPzwx4DxL70BPX63XIFLtNbC3lQpXvS2CIh1mfrtM7PZVElAr59f7CVgW1uA4CbLV7YkrQbD2LjAwSjDQb95Os1qKEbYsLGC3rvXXCQgpkpvzP1eYWGmHmHvTOqjtmdqhNFXdQeUs30LXsr+L4NNhJlfSrKaizJaiAIRLYbCKEL9KMBBltrTDLIBV5NneILeibrP/DKXSDFAmt3TARAgCIXebYT9H5I594ZG4NQh7X5MlZH/Xg/dZXcwy6SkP9oVhGHCvJ7PTN9/Jen7hRtjo6U6zWvpTuw+pzdpTruQktca4+t8Hp94+i7q1Sc/raGqHUsrY4KnT7aBysu43Qd7W/J1hBddn4E173Jr3+hk+DzbuVfs8SN8nf/C+fvqS/c+vrzn09QaetfYHffFxhgIWu8/Mn/wsycfjFFKDjMch27Utd9LxfjzAmvKW84UbYcpPH1G5fd/YnmB8MGC0kvvScqxiXQNJ8N5zSinnDv4LKOeizN7nPaSFtR1iIeN559zXi0F+mMgcuD01pXv28yaWnzMbDWAVzcYbU5mcm+6zmKd029hTLBIMvmDsDqyWJt7gw5Om4uME9x6Ru/KcUmGPh5HhuqAqsfwcio+ITIdYLU1QeZzkP1fwpe6BW9ao+26dAGA7Xb09Pgi7j+0ACaCyt0fwRrp62z22IcqUrTBB41hmB/dqZdh3cVkNvJxj2z2IMhqiWq7d8mczypr73NV9/lQ133lUPU+M7aEZSqX7WAQIAOHUDqvXu/Qiti3lSlqplu/9MuWAN0Xfrcut/TJWKNjkGfwNb34Wm+6/K0nGdD3WWl1g7KtzPPvLlI3f38Tyc2aD6+SIVX+Dy/lhcleMOsz4LV9Y2yGGfXthbYeJSpFKNIpbChRsn4PvXnPk3/Z5kF7+4g0Ev6lw5KR+9n5gb+pLf8DRkwqH3ziB5t+c4PGzD+n9o3VyIHkG2j+Ry8oLKgQYveer4FeSjHV1qoZ0hZUNdq0AwevuhjQjoTJbc1leHgQYuuUmT4UIVhtHjN5xNw3zIMqsJ80jQLh/z0nXfMRmf8ybBtIovdMxf8dI76leoGVJjpk/IGkmIznKoRil0g6zUdhcGm48xm8lyZg5vmNuisjYC2Klu7wcG2ZyOsk6MUprMKlz/mysJJmcDhGLBig/TRJe86bfFpbTjA+a7fUVXrqNDveiVJzHrC4Ci3cZPcgZvV12ivHC2gyjB7lamYiPM+RP63u1wW7/iCcl2e4N3GrR62D3IFWMtN9KdKaWthaIMlRxyn414KtU0/4eFoPE3DToxbxnXyRfYTTlpkg7gd1BrpbKVj1P7PKe27cDzkjkJmORHGUsNpe6+EKqHeVKTrBnl+87W/W7KnY9P/btQf0+wxuldxopz54/J9V3Yc1N226VbtqhnICuVnc9YtMKMPrASYP2789DOOR7jlCMkW23LrMIT+0wG1yvpTiHJpqm6Qaig1SWzMeeYjiIAI3TM6t/vp65uhTPT/5AzyeXG6R2HnK89JLD73+xe/HSFY63gc+DtYCP9+m98Y8LCfjgXejpI83k0lUKqRilkpv8pcHY0i2ybOzdZ9btDYlfJWgdUAay22Vit50Uz/hVglTYWsG+WKLIQyPAmr+TY6Q0QSaeJgmAxeZjI2B7epfSlH3x3TQdxEzJMljFR4y9uttgohd7fM0kUB2Xm/I8ks2lr+FB84kCwmbKJ24doPP/LCysxQg7PbVZfGlA8QyrFKkEQ54yRzzDRH+Rr+YgvObcd26KSPVxV6u9c3WpRdf7CRxs+Xp+7PIdWwScHmO7N3AfBhsfd2J5onrctjSTEafBIg5gZoak7QAkf7N6LNnprxkvzDCxnGD+le/J56acnmrs8yhQJjfmNoa4GSbOeaTy19DFlavGk4x40sRdZk9Vg6yHTpadTjbdN99i31vxf8a+7I2uVdcTatd/o05dl7g1SMCyzwMA5qbI3fCVZ6s2PCL7bI8vooPsfuvUUSsb7D6IGo3EPvvr1XrLfexAHFBddqLj71ukdzZI1fSkePp7+nz37wldgg+gL/2hsfUyfWmAXzhKvz6Lt3Aq70DQh/dEcWYWHE3tUHrQXZW3dKfsqwqzg/a4PqpjooC5LcpTI4Rxfiz215nHGdsXCDcI0MwxG7UWdsBOI8X5AWjGKlMmDE9rPRkLazuMvMrCXLZ2seyKZyiU8hCZYp4sybEmZ+pKo4lgnPE8qSjUzQ4qb20xb6cHOa30npRdJ6ienE6QKdwlcytI4GDdLnPX+wk4ZQuAkH0xfZo0oYUbYcrb9Tli2Wd7fHHPbdSwewO/WoHxB42fJxwMwMGL09X78asEsdj90fOKvDyYYQhg7gmbt2eqgYL5PhqOkV15QSXVJBqVCy5XvjqlLj0UPGMM1TP4O9gZJJUfT76nR6MGQqt1b2J3ccdROpzzpVHdVq5Y0Dzzlrrfcrl431TqUjrtnj1zi/f28ffOP599SC+/cPzrP3yzd/bRk/ojfPeaY2icInoO3o2gz1RtibVPmtgiZFWZSyerBncJBqpjogDSbO3vMLIIBANYFSP5v1Vr9mlmF2w4pu+A3FOMXscME6Ey63fc5208iL9Ry3v1Yq7h+IZhIs6P2PyKM3OjZxIH9fS9rYUbkMuXiRmt7/a4OOxp1gE3OIpFoZx3fq2MnrCFtR1Gtn0X09f7CRC2e9E8gbqTlnyHeisb7D64TyaeZsNo1Bg/s3fbSi1wWFjbITa1Q2nKLl8bF/L6neXiy5X/Pgoszl6gfiIWD2NMX3WTevoaqwV77vh2e7xyu49L3tqNS/R++n8cffl34PQ9fT0hOPryf+lJGeHW50H6PoGjJ7V0z75//R8Ov+yCMX3Np+rep2JB8Mo7N4m3yBlLs7UfZmR5nKGAt1WvXLEIXskwEqqltGVfVSDQT+NV9VxBb6/e9X4CZovhfq6a9+8x94TN/hiriwkyD6JUzKm3zenTI+Z4J/8YEKPleCXJ2FKR2qs4FxiFDAknJbQ2yQYo4Dsb83fqp0z3Lr2RJrOcYH677Ekn8gtPuWO1nDE6t8OUi0WI3vWOFVkcIby/1SR1OMvGHgzdStupnc9a9+GVKxb0Xz3d8g3OmHBvupN/1lmbPVbVHmMzdCvR+Dwy0gyl3oWXK0PiSvD0PcByOosjhOuWwTjFkg1Oo2F1PF+TNV67zuKInfocaTy+vVHdFg6efhVKaaPL/+RZWsEzhs8/ps8YA3j8pdOTB9hrAg7Qy1+c8X3GbSeYPG9tD/qy0+uUA/5JKKiOt1hX2pd0gXLFIjg4SMB34Zx9tgfRKGHLmCBj7gmbVpiYec7UreFnTo6UZnUqjOWshZW40uqyNkvycZHg1AmTKSzmiYXe5PzUOn3tYwZBIYKBAKOpCXgGmdthCETtMXc46z45F3KxUO27GZvO2hNsUCQ3nWR931v+EleC3p5oH7scxxhtsn6b577Ob0KsOgFEo7VdXWlyvgkLEsv3a78d/vPCnC267jyyGzoCxrgYaeX8y1VVPMMXUdj8VjN6nqWFG2Fo2ljTgn9N17xq7iqzIWkx72nUrKvb3HRpaavjv/124n16Qpc43q8FZsc//ORZx89/uzF7TcCjb6AnNUBf+l84fvITx/9xmb7UpTN6N629A+mdaSYj+/a6fCUjScwq8jCi8XzSHexB11HKT/2z2NoDt0c9LdxZkmMhVkvm5EfeaeqhzGZlorZ/P+dMi+4u/dDsAt2eOZH9MlbInlHTu1aWu1Zfk/MzbvdWrtddNGudvraJjzMUKLNeDeCd9MZbz5k9yBF5fJVC6jmZH2+SNCZnWVjbYQTwfOduStedRwwUZiiVRshFnvjSkhtwyvGQb2HuxtzJvYxy4ZbfeH1SaHb6Jiw/Z7ZavoxzwZ0owSh75fywE9RlSY7h/e1puTZcmq39GLHUDoVbGod6/uXKWOJlKmx8b6dTtwyI83qY4zqdKfK7cj3AxTyxkMXmUqv3HiIY4I3qZHMinq7jr2+sIg/zMFtdlslXt1lFNvfDjLb5sLve7q9wd4C+T1vc59fXHLoTvTRatsHUYAygq+fPA/Re/o2jJy853HY2br/k8LMP6UtdOvd1+nquXfvo+OS7iUhnSLNaGmHLmUQlgH92Tm96pbsGVDn/iMrtGUYD9emX3skcjDXVXPEMhVQ/6551+g54OLbBuGcShrS9rpfSO8+G8znn9gYZeXXT22vrnxSjwSQZ9tgr53s/aBwMLaztEOvXhFtd5SLL1dN+ZqfwNWiZNJHL79Pqc2u2dqWjWn8nyToBued+vnXomn93Iuer50/vt/sQzsXxf//+VFAFfSIiIiIi0jEU9NVr+5g+EREREREROT8K+kRERERERDqYgj4REREREZEOpqBPREREREQ6x2EHTlnylu9JQZ+IiIiIiHSM478edlbgd3hsv6e38A6s0yciIiIiInJGfj7k+Oe3C5I6jXr6REREREREOpiCPhERERERkQ6moE9ERERERKSDKegTERERERHpYAr6REREREREOpiCPhERERERkQ6moE9ERERERKSDKegTERERERHpYO99/PHH7T4GEREREREROSc91659dNzugxAREREREZHz8f+0HUTLTELuCAAAAABJRU5ErkJggg==;" vertex="1" parent="1">
          <mxGeometry x="-340" y="358" width="579" height="31.77" as="geometry" />
        </mxCell>
        <mxCell id="4SHipQYe5DLUAEDX2a7b-17" value="" style="shape=image;verticalLabelPosition=bottom;labelBackgroundColor=default;verticalAlign=top;aspect=fixed;imageAspect=0;image=data:image/png,iVBORw0KGgoAAAANSUhEUgAAAR8AAAHaCAYAAAA5ck1KAAAgAElEQVR4nOzdf0xbd57v/2d2ptwaBurQJp7GaetoQ5hMAps0E9zut18w6iZ/BERu1IvwHzTsLvIl5K+9ZiUiQTRaNZaKtBzNX00Q4t6lzR8HcVdVEMkfzR1hornbOp1OO0AmJWQUphMn4/z0wBh3iareP86xfWwf8yO/DpD345/G55c/pjkv3p/350DW/fVfb/0eIYR4yv7K6gEIIZ5NPywpKbF6DEKIZ9AP7969Y/UYhBDPIJl2CSEsIeEjhLCEhI8QwhISPkIIS0j4CCEsIeEjhLCEhI8QwhI/tHoAYmny8vKw2WysW7fO6qEI8VhI5bNKSPCItUbCZ5WQ4BFrjYSPEMISEj5CCEtI+AghLCHhI4SwhISPEMISEj5CCEtI+AghLCFPOOsajim4CeF/f2BpJ1S1EjhYgg2IXPTTpTbQrpQzc6aDk6NPdKhCrAkSPujBsxHAjaK4TY6IEPJ3MUAD7YobR3Kbn0RUeY6W47g1RtdKCp4j3ageGPG20WP2OrnNaTgpxsSHzZw499RHK54xazp8/mHTjwH4Xzf+lPOYZMXjN6l4qloJHNzM9TNdesgM0OUfABpoV1zGq+DeasM8vBLBtQIlw8ibHkaHVbpf9dJ2ysrBibVuTYbPrsIfMR3/Nvn6hR/+kFef/y+M/yVmOEqrYoquDjHEPgJHI3R8EEzt9rajVEDI37FocGhVT/aUzXM0QJ1zhsijf6QnoqXECeGRVPAAnGpjpESluqQF0vcI8VityfA5unkTLtvzfDn7F/4K+IddOwGo/PVX+hFa8HDRT4eqbdkeqEMJbGeo4x5uxa2FSWY15G1HqXAkXzoUBa3OiRDSj204puCa1npA7q0wdeYkQVamcDQGOyroPNCTNs3qafNK7Ignbk2Gz3+/fIW37C9wzPUqAD///TS//ctfDEckpk8JQU52QGugjjpF6+V0mV1Y7cKvkpyOEbcxM+6nSzU7OPM9Vp7h95pxdqtUH1ZRD+sbwyN42yR6xJO3JsMHoHq9nZvz/wnAW/YXGLkfNT3OczRA3VabYYsDd7Ki0cWnGOpIVTANOzYDM4x1nKc40E6DOo1Lr6SmtavSGqhjc3gofSq3AqWqnFo6+xrZ6axGVasJB6XnI56sNRk+uwp/xOtFP+J/XPk9AL/Y9tfsKvwRX83q1Y9hmRwgfnWBkKhqJbDf8NrbjuveGDO40CqmIJ6jAdzxKYZUcBxD2/7JdgIH99FaFVwlS+/DnGgeBqD2eB+NezupPXWCYYtHJdauNfmQ4Vezf+HQby8xHf+W6fi3/NffXkoFD8DoSTr8fvx+P0NX48u4cgPtFTCtpm9zb7URGc/o7Yye5PxVKNnfiueRPs2T0kK3qtJ9JHvP8O0oFKzHmb1LiMdmTYbPE1NVDFdDaatfDce05rRZ3yf4wRgRWwlu71Mb4TL0MHIphtPTR+cB4/ZaOvc6iV0akaazeKLW5LRruWxb61CUutwHxKe0/46e1B8ibEjuGnjfv8BS/MpuOg+/18yw/lxPsuEMhINemqXfI54wCR+W2fMxpTWYS2wAcaY+fbzje2in2vCeWuB1rm1CPAXr9u7d+73VgxCLs9vtVg9BiMdKej5CCEtI+AghLCHhI4SwhISPEMISEj5CCEtI+AghLCHhI4SwhITPKvH99/I4llhbJHxWiXg8LgEk1hT58YpVYn5+nvn5eauHIcRjI5WPEMISEj5CCEtI+AghLCHhI4SwhISPEMISEj6rVjk1TU3UlFk9DiEejiy1r1pj/PHubtw/qYTxCyb7K6n3lbLYryCbvxmif3hMe1FVj29jhN5Bw/XMtmUor23Cbbu24DHJUdX7KLXr7/uHV2h6Hb7sP8vYomeKtUbCZ9XIFSal+HylhtdRJnsHuZD1Z6isb6Lw637OjusbquppKjS8w8Z8bnydHiBm24zKa5twv5xnMg7j+6fGPn8zRO/gmD4eN9wNSfA8oyR8VpP5G4SeSJVQTk2Tm015wBs+fG8A0Ul6B8Fhz8Oe2EZi+wWSYTh/g1Bv9pgq6304biWC7wKDvRfSw66qnlI7YHfj8xn/icb0wBRrl4TPKlZe20TpbD+Do6AFyG74jaGywU6pz0daPWIMEmD+ZuJPhpu+qh7fRiiv3QJXeulN/KOHZTU0/QQSwcOVXnrv1dBUX8lYcsqlBVn+dK8+Lv162xI1Wyps0qZ8ieu/Dub/tqxYayR8Vhl7bRNNfEn/8Bhjs3O4N1YCFwA7+dxhctx49PKmXekclL54h0nTf7JUr2QAOMuXrzXhayok9BvY/cZL3Pmsl0HjOEYH6R3VwnK3Pvby2hrsw2NoQeYg0jsIP9nE3HSvTMOeERI+q0z0D3fg9VcoZ4yxe3PMuwopB8aqHOTfnUy/cefnllFFZFRJ0UkGf1NIU1MNLDLVGxu+RqmvFPfrNwj19uc4tpxXXswjL8+Nr95O7+DZrCMuDPYuebRi9ZPwWS3KCsmfm2VsPMorr+/mlTIYG59l7g0HdrTG8J2vM277vE24fT6MHZXlTLsYP0s/NbkDqKyGpjc2kZfz/YzXLCV/Lsr83Um+ZDf1VVHmXLvhN9e0Q6vq8bnmnlBPS6xEEj6rRXE+ecySWGLf/Vo5jEeZm99CYVkl+fkZU66yQvIzGtTLm3bpxs/SX1xPU205Y39IXFsPnfl55nM2iMupaUrUUZXUb4PIFdhSCGPD/VDbxO67X9I/bqf+DWB0kFBhE+60/pFYy+Qhw1WivDCf6C3tphybnSPPZgfGONvfz9liB/l3/5heMRTnQ+a2hzU6qDWGi/O1Kmf8LP29vfT2X2NuKeeXFcLNyVRAVdXjfvEOXw6nj25s+Etu5JdSX/U4Bi1WOql8VoVKSl+GuUTlMTqIsTuSPeUqp8ZlZ256OdGT2fOJZB1RXpjPfDyzi2SyopYUZRJg/KzWgK4qTY1/1Oz4Mc72y6TrWSHhsxpUObBHrzE4vsBTy8lezjw3bt/hJW7wpekNnnrKGCB6ZQwox7Tng/EhQv3an2WGw1KmXWYMzxbN39BCSjxT5N9qF0JYQno+QghLSPgIISwh4SOEsISEjxDCEhI+QghLSPgIISwh4SOEsISEjxDCEhI+QghLSPgIISwh4SOEsISEjxDCEhI+QghLSPgIISwh4SOEsISEjxDCEhI+QghLSPgIISwh4SOEsISEjxDCEhI+QghLSPgIISwh4SOEsISEjxDCEvIvlq4SeXl52Gw21q1bZ/VQhHgspPJZJSR4xFoj4bNKSPCItUbCRwhhCQkfIYQlJHyEEJaQ8BFCWELCRwhhCQkfIYQlJHweiofWgEK71+pxCLF6raonnBuOKbg3AsSZOtPByVF9R1UrgYObuW7cBniOBqgrGsP//sAi11uC+BRDHScJAp6j+yiZDeFX9ffYajM9JXLRT5e6xOs/CUe6UT3O1OvwCN6pbenbDGKXTtP83rBhSy2dfY1smc7cnltLt0q1+eVN3nCC080nWNqVxVqzcsKnqpXAwRLMb2NN5KIf//vZ2z07NmO7NZYWPADBD8ZwK27avQM5Q2BJAeFtRylLvGjAvXWGkH9Af48OglWtBPbDeT2coIF2pZyZm4tc92nQb3CO99FoT99mvOlbulW23c4Onp0FwI5GVLXR9PLhoJe2U4tvy3KkG3Xv8j6KWFtWTviMnqTDEB5aVZJR4ZhqwL0Vps4MoN30bhyZh1QoKBWJFxFC/i4StZAjbd8C4jNo061yZs50MICH1kCdVgFNF2FjJnWs14Xj1hhdC457Jallg934uoVutRpnLEYMuPZhMyfOpR/f2dfITiYYMQkZp0dF9SzhbWP3H2XQYpVbOeGjS0yFzKocs0DyHC033OgDdOkViVatzCSnSrksq/Kp2s5mmw3bQQXlIMSvDuH/IAjedrAV6aHnobWsiKlPzKd6T13BThpV/QOG03elTZFiE5w+BVqwVEPQi/cUaEGkor49greth9rjfTTuKCB26TTeHFMxqXzEUqyg8NErCX3eZVqR3Arh9xtu6qpW9iWmQPq0beain66brQQqIOTXg8fbjuKaztn7WZTahV+/f4OjgLeV1psnMyoyBy4voDoostlw6AFled/HbNql62nz0pN1wjAnmo2h0kObF7rValS1Gogx8aE3oxJ6CKfa9HATz6oVFD5BTnak1yiJZm7OG/jlImw4cCsKbuJMnfFzcrSBdkVrPiejRu0idEwhcDRCxwcmdZC3HaUia7KWJjmG5LGGcNGPcZS14lFP6tVXA+2Ki2krgycXvRrK7OLELp2m+Xa1SUM6zIjXSxugVUYq6uG0M5nInJplNrtNLKlCEmvWCgofnaHxHL86hN8fNGzPWNHSK5KGo61EPjhJEA+tAa3nk6g80myso90b1IPMQ3Fh+nUW56G1zJG28gXgOVoEt6aYKizB7YWgapgOPsrX4kmJhQnjhM9TN3+y4XxqOLsiOdBJn9oN3jZ6siojI0PvSCobsYgVFD7ZzWLb1joUpS7tqJKDCsr+1M2fXC5XFOqIEPL78etTuKJxfQp2sIgxfxcDVa0E9mvViRYccXAFUJSF1thSIhf9dHVkVk4etjttxMOXOTldhFLWiucm7Es2wS1m2vO5z8jn0FjSAvTAgU4qnGEutum7D3TSd3gnBRmXqlZVqjO2ZVcvMSjpQ1UzzzYn1c+zawWFj6FZnGQIEWNl4m1HCbRCxz1cG7UKKXs6Fc9e6jauqFVtZzPXOf++oSFdZQgqwFPlITiaPU1LPdsTIXRmhs22ONcvBWE0SMilUKc3oxdepXtKwoZGsbHnc2qEib5Guo+Eub93J9Ggof9z7gTNhilUS7dKRdTsGaBD8I1h04FdbOEaH7cZlvEPdNJ3eD0XvW30ALUHahk+J0/2iBUVPhrP0QB1zuvZq1TGaZexAWxc3apw6D0YNyVcZ2gUqEq7Oq2BffBJB5d3bMY2O2Z4jwbaDcEDHhxv7kPZvz01lsSU0ND4bjimYLsV0oOmAZf+0KKtaOEe0tNQu8G+wN5hTvz7LvoON+IMj+SeIh3pptoZZqRt8cCo3bOFguhFw/NDLXQbggdqcb59CPWdXfJwoVhJ4aNPuzL6KUmjJ+mglUCuadetEH5/lx5CRUyd6TJZYndQZIMZPGx3YlgOT035HIqCO+2cEuqUdhz+LgYynkXC2457Y0RbbUs0om+F8L8foTVQh6K40p4petp2uQqITYdz7G2h+/BOCIeJOavRWjo96fvVapyxCU57TYLiwC62FES5mKyQatnlgol/70k/H3BmTdd20qh240yGkngWrYzwMSyT+1UynnaOEEpMufSb33M0QF2gFcaLKJ8Zwv9+kMTPW5UwxZDfEDyjl7m+v05fEQPiU4TYzr7ZMT1ItCY1ifc2421HOdbAQNpSvf48z5kOIkcDKFtnCPn9yaA52RHUxqkEKF70QcknY31BmItf7KJPbaQAiF0KA9v0PpC2ZN6mh0ft8T5UtZpw8DT39zaysyB9P2T/6ETs0ulUeBzYxZboRX26lvmskIkj3ajdLfS0Sfw8q9bt3bv3e6sHIRZnty80hRJi9ZGfahdCWELCRwhhCQkfIYQlJHyEEJaQ8BFCWELCRwhhCQkfIYQlJHxWie+/l8exxNoi4bNKxONxCSCxpqyMH68Qi5qfn2d+ft7qYQjx2EjlI4SwhISPEMISEj5CCEtI+AghLCHhI4SwhISPyKGcmqYmasoWP/LpKaemqZ5Kq4chHgtZal9FymubKJ3tZ3BU+7P75bysY6JXehnUf2tiZX0ThV/3c5Yamt7YRPbRwPwNQv1nGcvaMcYf7+7G/ZNKGL9gcmIl9b5SFvsVZ/M3Q/QP61evqse3MULvoOF6ZtvKsserXQeYmyOa682q6vG55tI+T/JrMA6V9T5K89M/b/LrGJ1MH8MCKut9bIkbPtdizD5jmnJqmtxsMvsflPb/p5L6pkImTf9/Ja5Tymz/JIVNbl66mzHGqnqaCie5ZnObj1/fn7m9vLaJ3XxJ/zDUNO2G32hfz0cl4bOKpd3Y6OGU62Czm6ushqbXEy9yhUkpPp/xqlEmewe5kPXn9Bsd0P8yp86s3JjPja/Tx2C2jfGz9I9jcjOU5/p02mfZGKG3/wLltU008aV+Xh6b3vDhe0ML5t7RjM86f4NQr34zV9Xj25bxFZi/Qeg3sDszvO1ufL703/ad/ApdmYRtmV9Le8bX0Xh8L4P9Y2nfXLK+llRS79vC3Gf9OYLHaIyz/VpQ1JSNZQXFhcFeorX1+r7yVKCYXaqqHveLdwj1a+96droU3+s1lI/nCsClk/BZDYyVwMs+fNui3LgJeS9n3wDR2Yzj3/DRFI2CfZP5X/75G2l/Nq+CHpXhO7seBFoYgsOehz2xDXJUIOmVwSafL/VL/qOT9H5dmPy8qc+o3XizzHPjs9RNnLipB3svkKgkjNICPRHOiTBEr5Rs1xavkkYvpF3jy0f5ulbV49uWn/wcuareJJ8v9U3ojSZqMIaYnZomn/a1fNlH02uT3FnwfWGy1zD20UFChU246ysZW2KlmIuEz2owfpb+ce0GzJ/uTU67XspV+eg3S9q06ycLlf3mjN+JtQDILLntlBr/okMqXHTzyX87zVAlVdXj2wjltVsgWY2g3ag/MRvJGGf7x9C++zuIZFzHGA6G0VNTX0NhxrbC/DlmH3rKUM4rL8KNuw58Pp/pEZnVaOVPNjE33Zs2zdudrMqWoKyGpm0w2dvPheS0qp/eHIdnV0yQXtXmw2e99Cb3l1PTZHYdH6X29Mo2YWy4H2qb8PkcpvuXSsJntSh7hXzmsW/z0VQY4stHuFRlvQ/HrVRvyMhumLKMzc7h3lgJXADs5HOHybS/1MubdqVzUPriHSaX+493zZv3fLSbJe1AbnzWzx9fa8JtDMT5G4Qypldunw83USavLPLeVaVsmrtG73COyowbfJnRYynNv0FosX+5JKuy1be/4cOHNi27QOqbj+n0aEEXtEqvrIamn8zq/38S30xM/iaV1bCFSXp7c8fK2HA/Y2U1NPl8OK6Y/11ajITPKlH+Wj7MQXS6l8hGrcLJM+k7RGeNr7R+R/3NG2DP6N3YU3/JjU3q6B/uwOuvUM4YY/fmmHcVUg6MVTnIvzuZPnXIEQTmMqqk6CSDvymkqakGljolKSskf4Hdqc+h31joN4nJsWOJpv2Ld1JTzap6tuS8eiX12+zM35zM3u4rTa/gMo+vbcKXNk0y/H+LTtI7qFVuuXs+iX5PL4PjqffM6s9FJwnFwVGc4yOMzzL3uvb/016vN6THoeb1zOMSlbbPvAmuvRmTvYMmFefSSfisCpWU2iJMxrdQClwY7NfK93iIaza3oYqppL6+Eqoc+nd2vd9RXI/PluqlmFY+ZYXkz80yNh7lldd380oZjI3PMveGAztaY/jO1xm3cd4mvWowWMa0i/Gz9FOz9AAqzidvLpLzOPs2Q9XAPDcypoppU4myGnbb5ojmbcLtq8e+yPShsl672ed5hXqfO/vG35Ye5pGNiePTA3ChaZfdBnN/yNhYVkPTG/lc6+3nAoaA0quS9KkxUOVgd2E5mH6Voszh4JXaJjYxSe/wGLmb+ImprtnfF236+6gkfFaDskLmbp2Fwuzvyxe+vkHTG/XUb7Rjt0P0Zojy0Qv0Jr57AuWF+czHC6n3+VI3TaLySTR4i/PJY5bEEvvu18phPMrc/BYKyyrJz8+YcpUVkp/RoF7etEs3fpb+4nqaassZy7zxSDXV529OcudFO9HpwbT98/FU7WVW+WStdg3q+1/P51p/BEfTnLaa1VRDdDrHGPVpSOjmFnbzRwZ7jRMfk+XvshqaNiaOX6pyCs3KOmM/q6pea3YvNFW9NwcuvXLN2jnG7JybUtvSHyvQxhUl8gT+0UsJn9Vg/CxngfJa8339xfX4Nuaeo9tteczdmoUXM1azDA3e8sJ8ore087Vejx24oH33q6qnKXPKVZwPmdse1ugg/QBVpVoAJnsg89z4rFcLs6p6fC+m90/KM+7W7MpH/2/mateDO+TfneQsduohbWnfNCzGE9Oi3JOyRzoeoOwVXuIOX+aYxqSmiIuExvgfuZOsXI1Viz5Vm59nfi5xcCI49cqsyuR6VaVsmoukN7jLCslf1pTbnITPKpaqCkKE4rvxNRVmL5UX17DFHuXaIDi2mUyTopNAJaUvG0r+0cG0v2zZU65yalx25qaXEz2ZPZ9I1hFahRaF8QvpvQSzJV8T5pVP2jtoq139Z/Wmbfaz0lmPLxgfRXiCMlfFUvRm9twkvTmCJxW6etBOl+J7o4karpFvjxL5uoYm30vc0XtGlfU+mmqj9M86sC8wjdWW9OeYzPymVpxPHnPmJy2DhM8qZbflZSzrjumrD028cvsOL23YRB5RbsRfYu5KPxeopD7zOZ5E5VPlwB69xuD4Ak8tJ3s589y4fYeXuMGXOUpx48pT9Eqir2DS8yHzmZV5bnyW/dStFjyDyZ5H6vgok73ZT+Nq+6NMjo8RfW139mpX7i+r+XM+ZowrVNEFKkBbKU0+d8bT5ekBF/3PG+SvM/96VuqN4d6MVbTEat38zRC9vZnvrj+L80ap1tgfv8AFQ5hfGAxR2OTG9zJErwymfU0T/7+SgZcInowVwuiVwUeueuXfahdCWEJ+sFQIYQkJHyGEJSR8hBCWkPARQlhCwkcIYQkJHyGEJSR8hBCWkPARQlhCwkcIYQkJHyGEJSR8hBCWkPARQlhCwkcIYQkJHyGEJSR8hBCWkPARQlhCwkcIYQkJHyGEJSR8hBCWkPARQlhCwkcIYQkJHyGEJSR8hBCWkPARQlhCwkcIYQkJHyGEJSR8hBCWkPARQljih1YPQDy65557joKCAp5//nmee+45fvCDHzzR9/vuu+948OAB3377LbFYjAcPHjzR9xNrk4TPKvbcc89ht9spKCh4qu/7gx/8gB/84Ac8//zz2O12YrEY0WhUQkgsi4TPKlVYWMiLL75o9TAAKCgooKCggLt37zI7O2v1cMQqIT2fVchut6+Y4DF68cUXsdvtVg9DrBJS+awyhYWFpjf41q1beeutt9i+fTsbNmwA4Pbt21y+fJlf/epXXL169amMz263891330kFJBa1bu/evd9bPQixNM899xxOpzNr+9///d9TXV294LkjIyP827/925MaWpZwOCw9ILGglVX5VLUSOFiCbcGD4kyd6eDkqPaq4ZiCe+My3iM+xVDHSRzLPe9WCP/7A3iOBtjHeTo+CC5xvBC56KdLXcZ75WBW8fzzP/8zZWVli55bXV3NSy+9xL/+678ucNQ+/L/4b5Qu9oEA4pP8739SOL/AWG/fvr2EC4ln1cqqfKpaCRwsYszfxYDpAR5aA/vgk1T45L5OCTNLvOkbjimUzwxpgZLgbUcpm2Go4yTB9KNpV9wUXR2i49L2jPF6aA3UUTT+eMLGyKzqWUrFk2nZFdDf+flF/at8M/hPKP9nWW8l1Y9Y0MqqfABw4FYU3Dn3x5nKuU8LBod+3HVaCSglcDUjWB7JAF1+aFf20Xrvusn7AhUKSoU+2sf03pnL6Vu3bl128IBWAS21B3T4X3r4/34cJx7/M3ec/0JPD/zflp/z4TLGHI1Glz1G8WxYgeETIbRY5ZMpOf2JM3XGT9doA+1KOdw8SYcfPEcDKEpdcsr10FFgqMy6/APa6+TO9OkgoE/RHo/nn38+7fVbb7310Nd66623Fgyfff5f8N9KbfzpP1po+fk+/L94C/p/Tkv/Yf6lp4ce/rSkEMocsxBGKzB8llH5JEInPsWQ358zVIIfdGj7vO0oSoDtZxaZtuUyepLzOwLUKe2QFZA2Sg4qKAczRvuYFpmee+65tNfbt29/6GvlPPfv/PyivhQm/zctLWbdnA/5ecuH2nE9v+ClRaZimWMWwmhl9XyeFm87SoVj8eMyJBrHnqMB6orG8H9arFdC07iUcmZMK5/zj2Xa5XK50l7/z//5Px/6xyi+++47/vEf//GRx7QU09PTT+V9xOqzQiqfjJ7JkqSmOZ6jAeq2Lr5Ek+y/qF34DQ3hhmMKrumMJnHOhrOhkqpqhfgMEcD1hCufp2cJK15/+r+0/HypnR8hzK2Q8BnQeihZlrF6pC+F59JwTKHcdI+H4sKljzRtTBRhm50myADBxPgXCK1H8d1336VVOrdv3+bHP/7xQ11r8SXwOJO5plR/5+cX///S3ue7775b7tDEM2SFhE+K2bK3w7B6pMlu7j48B0W2ODM3l3h41XY22yKMqdBwzEF8JqRt97ajuKbx67MMx9EA7fc6HtuS+4MHD9LC5/Llyw8dPpcvX348g1qELLOLhays8KlqpXwjzEyn1wyP6yE9Mw3H3DhuhehaapC9XITt1jQDNNCeHKuH1jIIdQyAt10b8wfnKQ4EaL35eELy22+/TVs9+tWvfvVQS+2Jcxdmo7S+h576HLv/dGdJ7/Ptt98ua1zi2bJywkdfueJWhKIKBcUVwv9+ZOnnb3SjKLnXyADiM8ZX2vSphCmGOnJP1zI1uLRqp+FYHY74FEMqeI7uo2i8g5NpRwY5+cl2Am82wOjSr59LLBZLe8L56tWrjIyMPNRDhos/4/N4pl2xWGxZYxPPlpURPlWtBA5u5voZf9qPTSiKvj9r2gVZU69l9Xy04NkcHsK/rJWoBlwb41z/FHgzwtQnJwlWtRIoGqPjAz3MbBC/GtL6PaMnGXszQGvVwCNXPw8ePCAWi6U9bPhv//ZvvPTSS0v68QqA8fHxJTzdfB7ln3L90ATwfxT+aQlPOssvGROLeTaX2lcp+cFSsZZI+KwyuX6J2Er5lRqA/FIxsSQSPquQ3W5fsb+0KxqNys9ziSWR32S4CkWjUe7evWv1MLLcvXtXgkcs2cpoOItlm52d5dtvv7XkF8hnkl8gLx6GhM8q9uDBA27fvk00Gnk6kA0AACAASURBVJV/OkesOhI+a8CDBw9kuiNWHen5CCEsIeEjhLCEhI8QwhISPkIIS0j4CCEsIeEjhLCEhI8QwhISPkIIS0j4CCEsIeEjhLCEhI8QwhISPkIIS0j4CCEsIeEjhLCEhI8QwhISPkIIS0j4CCEsIeEjhLCEhI8QwhISPkIIS0j4CCEsIeEjhLCEhI8QwhLy73atEnl5edhsNtatW2f1UIR4LKTyWSUkeMRaI+GzSkjwiLVGwkcIYQkJHyGEJSR8hBCWkPARQlhCwkcIYQkJHyGEJSR8hBCWWOFPODfQrpQzc6aDk6MLHHVMwb1xaVeMXx2i44Ngxnu4cRAh5O9iQN/qORpgH+czjtV52wkUh1L7qloJ7IfzHScJGs533+ugS13auNaGWjr7GtlZkHgdY+LDj+Ed4zajMCPeNnqMm450o3rI3p5DS7dKtTPjqkEvbXSjejJ3jOBtW8pVxdOwwsNngNDVcur2t+IZTd3YZiIX/YYb3UNroI6icX/azd9wTKFc+5MeOAARQn4/XcsYVUNxEWytQwlsZ6gje1xaGMaJXPTAgqN+svrUPq592MyJc6lt2s2aedNrobFl+jTN7w0veM2WbpVqFr6Jw0Evbada6FYrMrYZDjrQSd87EDaeeCQVGNWqSrXZxWMTnG4+gXGUsUuJcWufY73JsbXH+2i0L/jRxFP2VMPnHzb9GID/deNPJnu1wCixmZ1ZQp2iUJe2Lb1SWZ4BuvwDaCHkWv7ZH3QwgIfWwD62V2XES1Ur5RsfZWyPz7VYAetfNW6pZYM9RizmZNsRIBkGTtYXQPT2wsHzWL26ngLup0Z2vI/GHRCLQUHUJNz0YAp/nh48AAU7GlHVxuTrZKAV7KRRVWnM2iFWgqcSPrsKf8R0/Nvk6xd++ENeff6/MP6XWNax6RXM0jkqFJSKjI0m2+Izua/hORqgbqsx/epQFD3y4lMMddzDnayYdAcVlMTRhoB0Kwru5HkLV21Pyu0o7CxpgUSNc2AXW7jGx5+vp9G4/cg2nIQZSYTRkfQpS1bVwja6VRXtiBgTGdWV06OierR9942nHeik7/BOEjOwcLBNC5Ij3TS6rnHam6pSVLVCv24L3Wq1Nj6v13QqtlDlMxHdAr9s5qs9UvmsNE8lfI5u3oTL9jxfzv6FvwL+YddOACp//dWi5zYcUyifMfRpvO0oFWRVFsuadnnbUSpSEeJQFNxEmLqa6gml9Xy87ShlkKqYjO+zD8avs7lsM9hs2CwMm0w9U2Gq926gFrSbes8WmP6Y4W92ccizjUT81G6wQ/iidmMney76jX6gk77DfXR+YwgYpxOCXryn9OMP99FJar/ZtAuAcydoPke2U23atXTD7zXD8T4aD6uoh1mwV9PTZgykYU40D1N7vI8+PsbbPJwcPx824zV7b2GZpxI+//3yFd6yv8AxlzYH+Pnvp/ntX/6S42itH4MeJgPTEdxl2/EQJAg0uBxwK/RoUxq1C79KVpB5jgbYvJTzk+EVZ+pMBydpJVAxw9iZ65QfNEwRb4Xwv2/h5OvUFcKeCnYdgOFz4LQXEJ0ahnNw7Z3G5NTLaS8gFg0DtXTudRIOGm7ocyf4eE8fjW+3wDl9a3gkVQmdGmFibyNb9tTCAjd3qhoyCjPiHWFDX3ZDOnbpNF6vPsE60o2qZpTD4RG8U9uym8pJ6VOxnUsIMvF0PbWeT/V6Ozfn/xOAt+wvMHI/anJUnJmbA1y+Wk6dqwEYgJszxCs2a72VUQ/FhRAZz76hlz/t8tBaplU/bkXBddFPaLEPUdVK4GAJtlsh/H5Di7pKu3Bk9CQdyVU5rfpSFJeF/Z8w95N9nxa2OcNcaQMY5qvpQxzaUAs42eaMce2Xw0AL6wtyBIWhX6IFVcIwt6ON7LQ7WaipEg6Hcdrvp5rFyYbzMD3N2b2mlm6VvuNo06mMysgobbs+XYxdOs1Fe6NJY12sJE+t5/N60Y/4H1d+D8Avtv01uwp/xFez5tVP8NJ19h100QAMjF7m+v4Sil4Gqraz2RZhLO2boIfiQr0Cybjxc692AV43JbMRIjaY9k/jUgK4b4Fto6HPk9bzmYHRe8wcBNtGN4rizhp3dlNcOy+ytC/TE2AImSPbcIav0JbY88U1Dr2zi9oDYCfKFUPVkt3jWR7Tns/UCBN7DyWrsJa3d8L06WTz2GzJHGd69QKkrWBlnRMewetNfkJ6aKFbVUn76yKVz4rxVMLnq9m/cOi3l5Kv/6vhzykOimwzTI8CXOb6/jpcXkANcm+2jhJXAw0ureoYyHneUjXQXlHE1Jkxig66SPRyPEcD7JtZTs8HEkG3mTiEczwXZKFEyHTancSiI6kd524TPbyNXXvsFCT6PYS5H4MtGxJdInMFduMdX8sGO8SmE1VPzNAoNpadw5z4vBr1nU5qX11PtX2C022p90jr3RzopO/wei6aPQNUcjs5sp42LxgDyFmNqlbLcz6rxMp5wtnrwpGsEoJcDsdxuBoAGHjfj/99cG2MM/Vpxs1fVUzRcquLqmK4ej7rwcXgBx3m4aF24TdtIuuPB8yG6OjoYKyoDuVYw3JG8uSdu020YAtb7DGufWEMlB6uhJ3s3FFAeCpxQw5z4vMwBTsO0XkgcVwtnX0qfcdrU6c6K5L7a48fYmdBmIvvDZNYss/pVBsj0Z00euxM/Hv2knny/d7ZCZdGljxd0vpDXrze00wYF1BjE5z2evF6vZy+lL2yKqy1Qh4y1PovkfGu5A0e/KAj/Wb3unDErxPKCIyGN0sgPLS81aXRk3SNAjxsUKQeUoxfHcKvB9bA+34iRwPalGzFrHr1cCVcTbV9gq8yGsI9U2GqnXbuf2PYeKqN0xsMK00Yl7ITr6+xPrk/xsSHeoVyZBvOjCmcUe3xPqqdYcJhJzszVsgS+xt3FBAOemk2mfa1lGRUbzp5zmd1Whnh43VTwhRD6mI/KuEw9FXi2rRpY4Sx9xe4xdOW1eNMffoIcWC4VuSiX1sxy5AMTW87iqJQR2Y/6ulLX442yNHIHX6vOeekK+e10JbsY5c+hm4V1QkQ5so52PCO1gdqDI/g9SbO1vsx70xw+vP1NHqces/GcPWM54IgzEhb9sjkCefVad3evXu/t3oQYnF2u9w5Ym1ZOT0fIcQzRcJHCGEJCR8hhCUkfIQQlpDwEUJYQsJHCGEJCR8hhCUkfFaJ77+Xx7HE2iLhs0rE43EJILGmrIwfrxCLmp+fZ35+3uphCPHYSOUjhLCEhI8QwhISPkIIS0j4CCEsIeEjhLCEhI8QwhISPkIIS0j4CCEsIeEjhLCEhI8QwhISPkIIS0j4CCEsIeEjhLCEhI8QwhISPkIIS0j4CCEsIeEjhLCEhI8QwhISPkIIS8jvcF4l8vLysNlsrFu3zuqhCPFYSOWzSkjwiLVGwmeVkOARa42EjxDCEhI+QghLSPgIISwh4SOEsISEjxDCEhI+QghLSPgIISyxwp9wbqBdKWfmTAcnRxc46piCe+PSrhi/OkTHB0HT97i8I0DdVtsSzwPw0Bqoo2jcT5cKeNtRymYY6jhJ5pFWqD3eR+OOgiUfH7t0muYvdtF3eCdZZ8XChHHC517aTunbjnSjemDE20ZP8rVzye8XDhquBUAL3WoF9z9s5qs9ucceu3Sa5veGM7bW0tnXyPrE+I50o+69z+nmE2QeKVaGFR4+A4SullO3vxXP6MI3dOSiHgBAVijoGo4plKed5aE14Kbo6hBdo8Box4oIjcdl+L1m7cY70EnfO/Dxkm7EYZpfNdy4GTdxS7dK9xEvbada6PbYmfiwWQuehNjEkm74lm6VbWlbaunsq8Z+6TRt54BzzRIaa9wKCh8tMEpMC48S6hSFurRtEUL+LgYe+v0aaFe04MmuaNaYV9dTEL3yWG7mnjYvAC3dhqAwKthJY18nNJ9gOLMagWRFMhE1ntRCt6pdL7uiEWvVCgofTXoFs3SOCgWlImOjybb4DGhBV87MGT9do1pF5Jpe2vs2HFNwE8L//uKx5zkaoK5obEnHPkktJU5wOlHVavMDzKqVgp00qiqNALH75lMqZyOq2gjhEbxtPclrjUxv4dDxWoa/2MWWgjDRkkS1pI0lNj3CbftO1gNaxVPB/Q+9tJ3TK6KpzOlYjs/VrVKN4b0XUHu8j0b7xSUdK56OFRc+mRqOKZTPGKoTbztKBVlVz/KmXUFOdmjX8xwN4C6cYoh2FMWx4FgiF/10fTpF+UEXDbBI1eVhu9NGZNza4IFaNtjN+iu6I92oe022JwIpsf9UG179/NrjfRzi45xVSvi9j7nWd4huO3DpY9rec9KtdtNy6grbnDGu/XIY3m7Ujx7mRPNw8rrV9glO042qLtw7Cge9tP1ygorD22gBFo6UWna5Cgh/LsGzkqzA8NGmQ+hhMjAdwV22HQ9BgkCDywG3Qo8w3TLwtlO3dYaQX+snBTMqH8/RAPs4nzEtu8z1/XWUH/Uw8MFC13ZTYosQeogq7vFysr4gxv1vFjgkentZUzKnvQCiCx0xzInPq1E9diZ+qV25LditVV7hEa3CeTvjlCPdNO6IMuLVKrDhjKA0D7yvuPZOIxXHa+l5b4HhHKlmZ0GYkSVUU+LpWWHhE2fm5gCXr5ZT59Jri5szxCs2s70KgqMeigsxrSaWN+3Sp0RbbUBkmWMMcnLcjVK2HQ+Xcx7V4HIQvzr0eELyURzYgD12jZHM3oyudoPdfEfGtGtXt0qjsRhJTLkAiDHxYTMnsq5bwJY9tXBuGE5dIexxwlR29ZFalQsv88PpIbd3F7V8lfOolhInsUunF6mOxNO2wsJHE7x0nX2Jqc3oZa7vL6HoZaBqO5ttEcbSqgkPxYVxptKW4xeZdlW1ss95nSH/PdyKa/kDVKeJVLhxey8zY7a/qpXyjXGuf7oCGtmvrqegwJkKEjNm93zGtOurNq8eLloTeScmfaIj+n8PdHJoB0wEJ9jiqaaFYcLHK3DGYsQ83bScakudc6CTQ65rnPbeplpNX/9aklNXCHuqqT7yFffN9h/opCIx1RMrygoKHwdFthmmRyExtXF5ATXIvdk6SlwNNLhKsGVNuYznLdHoSTpGARpwP9RYB5i+5cbt2m4aPtvf1Ma50LNJT42hV2NGm87kqjha6PY4ASeNah+7PmzmBLvYwgQT0Z1UH8meHgHsensnBeERTpzqoXZDH4f6+ijgGqebT+DsVqk4XsvFxMHnTtB8TnuvHO3wRfRwJVxNdcku0/BJjiVH5Sess3KecPa6cMRn9ElQkMvhOA5XAwAD7/vxvw+ujXGmPs2YyFQVU5Q87+nRxmQ+7br8vt/yFa6lctozHuQ70Emfx6lPu7ZxJRjWqiBvMyfO1dL5zk6in5/gxC8nsHu6acm8YMFOdjrDjOirSsPvXSRaEGVEr5J62kaI7qjmIWqcnHravHjbzKddX7V5ZYVrhVohlY+H1jIHkfGu5EN+wQ8yHvjzunDErxPKqCYa3iyB8NCaejjwaYveNkxJkpWI7ki3XpHo063oiF5JndAeRlT72PBhc6qyyFq270F/NCjtdfZDhuJZszLCx+umhCmG1MV+VMJheNgwztSZMYo2Rhh7f4Ho8bajVCSW0ONMLdKHSTWiE+9hOL6qlcDBErKeg0xrbDuyHoh82GeXHlW3qrKkH3ZwqqgegHDqRyXSrKe6rxH79Gm8xtWmU2146UY93Ecn6Q1nM+k/7hFj4pfLPP5Dw3sf6DT/MRBP4rOANl1M73XlfORAPHXr9u7d+73VgxCLs9tzrEoJsUqtnJ6PEOKZIuEjhLCEhI8QwhISPkIIS0j4CCEsIeEjhLCEhI8QwhISPqvE99/L41hibZHwWSXi8bgEkFhTVsaPV4hFzc/PMz8/b/UwhHhspPIRQlhCwkcIYQkJHyGEJSR8hBCWkPARQlhCwkcIYQkJHyGEJSR8hBCWkPARQlhCwkcIYQkJHyGEJSR8hBCWkPARQlhCwkcIYQkJHyGEJSR8hBCWkPARQlhCwkcIYQkJHyGEJeR3OK8SeXl52Gw21q1bZ/VQhHgspPJZJSR4xFoj4bNKSPCItUbCRwhhCQkfIYQlJHyEEJaQ8BFCWELCRwhhCQkfIYQlJHweA8/RAEqgFY/VAxFiFVnmE84NtCvlzJzp4OToAkcdU3BvXNoV41eH6PgguKxzALgVwv/+QPL9yme062hjdDHt72IgMZbCKYY6ThI0nO45GsB9r4MuFfC2o1Q4Fhlo9jUSgh+M4VbcuL0QVJfxGZ60v63D+6OrqJ/8znTfu6/G+UI9T9berPPepO7d14j/WuU8+/D+zMYfPhri0xzv+e6G23x05lN+ut/LHsdzOYf3599/xNB/PNxHE6vfMsNngNDVcur2t+IZNb8REyIX/dqNDYCH1kAdRePGbXpoJK78vp8B4/ZkmOi87ShlMyYB0IBrY4Sx9/WtVcUUxWeIGK9b1UpAUXAbxqQFhkKgeIiOD7rwq6n3dk2njzOpqpXAwRJsuT50hYJSkbkxztQiYf3E/MdV7nr34N0P6l+28u5fv5BxwAvsefdd9iRf/5mrHw3xqX5e3d/+TguHv93ACw/ucvUysH3pb/+7T1ReOPgur8W/SA/A7VqA3ZbgeaYtED5aYJSY3mkl1CkKdWnbIoT0auOp8rpw3JqmK/H65SJss9PpATV6ko6sm3+ArjPFBA66acCBS3GTrH02ZoRIosoyvc5K9jvOqy9Q9+5W3vxkiI+MN/tClQ+/4/xvnXj/Zh8//Y/zvLDhBXguPai2vvsuW/U/P4h8gfpHJ96f/RitznmBd9/dqm0/8wU/SgTgJ7/Tg+fHzP3+I/PKSTwzFq180iuYpXOYVQEm2+Izy7+2kae4CDa6URS38d0zXqe9Y6oSMYaJf0CrbPbDeUN15TkaoK4o7R0XCOXMt8o9VXt6PmXoI4Cfss+7hx+nzYIyKp+Zq3x0Ro+Ey+dRL6OFRZFeEUGyasmedv1OO94w7Uo4r8I+7x7efXcP8IA//fojzl9+Ih9WrCLL/qn2rCmRtx2lgqyqZ7nTrocV/KDDcHN7aA24udexSAXmbUdRHNnjNKuast+Rkx3WxslSed99l+fQK5NPfsd51VDj5Kp89MokdZ4eQg/LeL2ZP0PRC/z4Z3W8eTlHz0g8M9bt3bv3e/NdicAIQYUbEjdpRu+l4ZiCm1TzF8z6JguEz8wQHffcizd8TWRVZYs1jm+ZjzNUHKBu6+KljPZ+1lQ+drv9oc776X4v5fyBu8VbM6oec4kmsHbeGH+w7WFr0WJnPeBPv1a1auZv6zJ6S4Z9SW9S9+5WXjDdJ54Vi1Q+cWZuDnD5ajl1rgZgAG7OEK/YzPYqCI56KC6EyHh2nbGsaZeaavhCjqZvzoaz4TxXEVNXIxTd68qYKurhN21eD6VXT4tZPZVPyp85r36krT7Z/pA2JdIYVrMyguDTMx+lplt/A2PqeX5nNvXavg/vu3rPxzh9S/op+7zl8FuV85c/ZegjqXuedUuadgUvXWffQRcNwMDoZa7vL6HoZaBqO5ttEcYybvTiwswVnuVMu7RAW7aqVsoZo+ODCK2BdhrU1NTLc3QfJUwxtFDvasGqKb2Z7jm6tEop8RjBilK0lXff3Wqy4wHxhc5bb+M50yNSwaV+hN7z0XdlVUHAz97l3Z/pfzYNKfGsWCB8HBTZZpgeBbjM9f11uLyAGuTebB0lrgYaXCXYboUy+ivG8x6GgyJbnJmbyznHQ+v+zVz/5CQAJzsctCsBWs90cPLlduq2zhDyL2H6YzpN0p4byjp0kWDxHA2wbzkf4WkxveG1AMlJD5E//34oe2Vs+4/IZ47bZlOn/zCusBkrn4cdvFhLcoeP14UjPkMIgCCXw/uSUy/tmZwG2pU4U2cypjIZz9ksV8MxN45bIbqWEV6eo/vYHD5vWAYfoMsP7YqCsoRHABqOBSieecRltxXuzYN1/CjOEiufn+Isfg7uoT8oSPoK1eUwd/9mT2q5feaqSfM40dfJYKx8kAcNn2U5wsdDa5mDyHhXsgrI6ot4XTji1wllhETDmyUQHnqIJqveyGWKoY6lPy3kORqgznmdoQ7j6ltqJctPO4qiUJ6jUnFUKBRd1ZveW82eXwKIMJ2xxba1DkXJPtIofnXJH+OJecH2HM8V7eG1yBeMUc6PF618tCX5F+9d5W7xHsrvfcFHH2XWOxkrZ6Yy+zpS+Yh05uHjdSd7JAv/2IPDcLPGmTozRpHxaWPTaxt7K3GmPg2SCJ7N4SH8y+mRVLWyb+sMIf9ltgcU6mxoK1r+LsNBWjPbczSgh0WiH9WAa6OhN+V1r8Fp10/5kS21ovTT/ekdtrQff3jwJ/0JZicvxq+ifvIp8ClvHnxXfz5nIQ/406//gO1nWqXzILICUleseAsstYuV5GGX2oVYqeSn2oUQlpDwEUJYQsJHCGEJCR8hhCUkfIQQlpDwEUJYQsJHCGEJCZ9V4vvv5XEssbZI+KwS8XhcAkisKcv+TYbCGvPz88zPz1s9DCEeG6l8hBCWkPARQlhCwkcIYQkJHyGEJSR8hBCWkPARQlhCltpXi6p6mgon6R8eg6p6fBsj9A5eMN+/oErqfaUkfjVZ9Eovg6NAWQ1Nr8OX/WcZyzy+qZDJjO2V9fUwOMiFjOtlmb9BKOua2nh922Cyd5ALZudRSb1vC3Of9XN2fDmfz3D9jRF6B6He5yCS832EVSR8VqPRQSbrm6gpu6DdmKZyhcI8Nz7rZTDzvPGz9BfX46uvZGzwApX1TRR+3Z9+fUMAXPh6jqamGqL9Zxns1W5r03NAC7Y3NpFnMspSn4/SrPH1c3b8AoO9UWqamqihn7MLfDm067/EnURQUU6NK58bv9HGNXhF+1wXBiV+VhL5NaqrReZ3/rIamn4yS3/ihsqqDMwrFlOZ4TB/gxtzm9hkUs7M3wyl3qOqnnoGiWz0UWpW+uSqeh7GopVPqlL642tNuF82izpNstoTlpLKZ7UaP8u1nyxS/eRtwu3z4V7wQlql0d/7EGMYHWQQgF4uZIahHn4pi0zPAIjq07ByaprcbMrKDzc+X8aniU7q088LWgVWVY/v5by04CuvbWI3Xy59yiaeCql8VotFvvOX1zZROttv+I6+jMrHcKy93oeD6IK/sD76XBT7AztaWERwLBIqj6PSqKz3sSUeSv/8WYFXTk3Tbpi+w0vbzKd5qYATVpPKZ42w22DuDw97dpQ5HNgppzB/nrnfDKZ6Qlk3eEIl9T4HyYpjUcupfLLPddjnufN1RowW55PHrGHDGGf7x7QxS+Wz4kn4rAmVOOxzREynXwvd9Inm7hizc7spLLOTnzdHZDz7HJ9Pbwub9nFyv0eq6llqSJmocmCfv8MkNTT58rlmCKj5eFT/kzZVy5/uZfAeJlPOxJRNKp+VQsJnNcpYpq6sL8XOPHNlQLJiKSR/bpYxoNT0htOnKLpoHBzFwPwcUcAxf4NQ/yylTYVMZvzXlEkoVdb7cCRf5erjLHwNqKR+m53olUHGxmFsvJJ6XxM1n/Xzx8L81GFlr/ASN/hyFChDej6rgITPKlFemE/ey/p37/kbhHpTN1Zp/g1Cn8HuN+qpHNdCpvy1lyD+R1hkopMwNjvH7o0OmIvogbVEZTXUv7b4YZoFqg79OaNMlfWl2KOT9CZ7RqkKqvIneczdGtP/vIm56d7Hs7ImngoJn1XCbsszrOxAcqpj+A4/VlyPr6mGaP8spS/Dnc/GgErAbvI8DcA8NxJ/HB2kv6oe37ZSfPVRoswtZVSUvkGy6Wy2sha9lXG86TgSw7lheKFXSnOT6Q9TJlXisAO3gLIatuTrVU9CzmlXxuMCwjISPqvEhcHeVMVQVY9vW372w4Kjg0xu9FF6NEr+N18a9i0y7TI856PdmHZ9mfwCg/3aIWO/qaHJV0pedFKrLsoKyU8GXyX1i067co2D1BiSlY8WPC/dDdGbubqV8TxSaBTgLP2Z/a7H+YyReCJkqV0IYQn5wVIhhCUkfIQQlpDwEUJYQsJHCGEJCR8hhCUkfIQQlpDwEUJYQsJHCGEJCR8hhCUkfIQQlpDwEUJYQsJHCGEJCR8hhCUkfIQQlpDwEUJYQsJHCGEJCR8hhCUkfIQQlpDwEUJYQsJHCGEJCR8hhCUkfIQQlpDwEUJYQsJHCGEJ+RdLV4m8vDxsNhvr1q2zeihCPBZS+awSEjxirZHwWSUkeMRaI+EjhLCEhI8QwhISPkIIS0j4CCEsIeEjhLCEhI8QwhISPkIIS6zwJ5wbaFfKmTnTwcnRBY46puDeuLQrxq8O0fFBEADP0QD7OJ98DR5aA3UUjfvpUoGqVgL74XzHSRJHNBxTcE3r+zN4jgaoKxrD/2kxgYNFjPm7GFjqR32CWrpVtk15aTsFtcf7OMTHNL83rO080o1acgVvW0/GWbV09jWy/nPtPOO1KqKnU+dnvE+1cxkDC48k3zf9ui10q9u44m2jJ3Fd+wSnm09g8q50qxXc/7CZE+cMmw900nd4PRf1a1ih9ngfjTsKkq9jl07zMYfSthmFg+lfa+2zVUPW9hyOdKN6Mv4HhEfwtkG3Wk36njAjFn5tYMWHzwChq+XU7W/FM5oKADORi8ZAyAgRXcMxhXLTsxtoV9w4Ei8rFJSK1N46RaEu8R7vh2hXFNoxDyDNZc6f2c4+pR2sDqAj3VQzwukNfXQfaWZE31x7vI/q282MbLATnjL7K+hkfUGYK8a/9Ac6qXCGudiWHQEAPW3e5F9m05A60o26975JiLSwzXjdAxuwx+4TNl73QCd9qkp15o14ZBvO2DVGzqVdkNo9W+DSx0/05qo93kej61qOUNTpAdvSrVKRsc1wJTr7DsE3xhNbUoHhUVE9ZhePMZEZurFUSNce76PRbnKsHsxWW0HhowVGic1sX0kyAFIihB72xq5qJXCwBO2t6lACUwz5IhS8jQAAEKBJREFU/QSXUPnAAF1nignsb8Wj5gjE0SBBggQXqNaeiuTN3gPHK3B6VBoBaKQRCAfBaS/AuSP1lzscHAFP6rukU1WpRvuufdG+kwKgWt+WYnITLGuc23CGr9CWeP3qegqiV9Jv6HMnaM64fqrSctKoap8tduk0ze85qd5RQAGNqGpj6oSsm36lcLK+AO4nXh7opO/wTojFoCBqUqHowRS+mP01L9iZ/FoAJBOcAnYeVlEPZ+2wzAoKH016BbN0joxqBciqYADiM8DoSTpGzaZdQU52GOJEPy5LYru3HaXCkbHTjaK4DW84xVDHwlXbk9JSAiPNt6lWVQh68XqzjqBb1crv8PE+Gu0XaTvVA6d60qZqgBZkO0xKdT3gvnrY4AFqN9jBWY2qGiPNmfHaSAu726RPVbQpJbR0V2O/dBpvZtVVov/Xg+FzZE9t0qamGVOZ7KnReqr7VBoLcuw3fK5YNO1T09nXyM7EDCw8Qts5fTyHt3DtQ2+qSlFVKi5pVWQicMNBL16zqdhClc+lKFsYofmLXVL5LEXDMYXymVSfRrvhyap6Hm3apfdrtpqWXZpbIb2Xo1VMWu+oC3/i+olq6lYI//srodMDPW1t2vQqNsHpbzrpU7XKRRNmJAhO4Iq+JRbVvxse6KTCPsHH33TS1wcfN3/Frr12Jj5spgfDzfnFLvo8diY+bMs97ViC4feaDefX0tlXze3mxfsRLW+bbHQdorogzEiOqSGnrhD2VLDhAHAOreoCYhtqQbtl2eWCa/8+bAgqfTp5oJO+w310fmOo8gqcqaA70EnfYZVuDAFkNu3SPjUnms3G2EOb1/DJz52gmU76DiequAV6Nafa0gJp+L1mhg/o/w+9zQzrgdfHaZq9j/J/7PFYgeGj9V/Qw2RgOoK7bDseggSBBpcDboUeWx/FtrUOJbCdUNjYjG6gXXExrQec1kgmWfFkh1gD7QdLIB6HjW6UQLFl1U6aA50c2lFAOHiC4XMwnDVt6WbiEtqNaC8gOqX9hWx5eyfRz70M08khIPNGcdoLIEr6VMis2enMmPZoG9OmBVmVwpFqdhY4IWtqlzhhkanT9Md434POvj46/z0VErUbEiVAD1fC1VTsqYVzw9RusBMLh8G1i1qGGT6wiy1c4+NztXT2OQkHU30szp3g4z19NL7dAuf0rbEJPk5UWOdOcPFtleqSFlgoOrOqvNTXYmRDX3ZDOjbBaa9XD+gWulWV9MlBmBHvFbZlNZVT0qZiO5YQZE/BCgufODM3B7h8tZw6VwMwADdniFdsZnsVBEc9FBdCZDw7epY17TL0fBKB4zkaeMgxp8LyfHGAuqIQQzPl1CntOCxtNtfS+Y5W6UQh2UdI/rUOj+Bta4Mj3fTt6WS9M8b9X2rnbbCD05P6C96oqjTGcq026TK+62ZN22CBhrPhvBI7E5fCrL/dljG90VffMprjzoxmbOwSaGHppFtV6X41NYZEZReOxiiwO0lVOVdYf1irgGr3bIHpjxnGSXVB9vW1Cxj+HL2d9lnC0Ri4NlCb4/NpB4UJO+2GFbpUw3n4VHP21+ZIN2pfJzSfYDizMjJK2673hWITnP58PY0ep8mU0VorLHw0wUvX2XfQRQMwMHqZ6/tLKHoZqNrOZluEsbTY91BcGGcqbTl+kWlXWs8nxba1DkVJtbUdikKye3PLbKRa8BRdHaJDBc9RffwfdBD0tqMoCq6H7GE9sgO7WD89woSrmtTsXv9Ol+h/AHxzHzw7ccYm9BUjQ5VzoJO+d+DjtLDQwqnAWU0Lwzm+a2rHLH/MnVRwkeb3wnT2ddNyKvVdufb4IXYywemMm8es56Ppoc0L3ap2HWNeDH9xjUOHt9ECrC+IcuVcD7ffVtl2BLDDtV9qy/2Z138opj2fK4xcquCQXn1xpJqdXOP0QlVkRsWoMTT6s84JM+L1Jpv4w6e0bwhq2t9FayufFfSQoYMi2wz3RoHRy1yPO3B5AYLcmwWHq4GGN0uw3ZrOqCYM5z2i+NUh/H4/fn+ICBFCfj9+v5+hq3HT8bYGtIon1bA2ULvwn5miqKKdhkcf2vKdO0HbexkrGobla4Da4520nPuKazEIf56jGtFXT1S1W7sdj1Szkwkmwk4qjuf6/u5kfUGM+9/k2G2qls53tnDtlz1oAXiFbWofnQeAI9007ogyslDlZaqHNrOb69xXXIvZ2XBcW2XrQatY7Bs62Wa/pjfPw9yPgX3DgjUM2NOrHG1KmqqGYpdO4/V6Gcn4XzH83kWiO/5fO3cQ27Z5hnH8X2DQEAUq2DS1EAtp7EOtAomEKYMh7yLFGHYphQ05ENMhCA8DYbfH+rBD01sKdAdd1wRCDgp60CAMwQq7tyK2Lo1bbC5kF6ucQ9y1kuHaaYkZllBdsgNJmaQk280cM9reHxBEJkWRdMDH7/d+n3OVG2/MULiisPZX173dmiOfz9t/PmRtz24w591/7tPAZPtj1zGL7pPEmC6XKRdmcIZq3jVYwa/zeX7CJz9GtP1vtgBY5J+NNtEx67H9y/tv8/b7MDbS5uGnvoFM9gwvdo87SVt88M4hVc3SB7wT9Dofx6svdYdczuzSNWWb27PTXDoNsckb1kNkz66Uy2XK1y9x2u435PNz1lqbKzEan9/k5idrcPGqFQ4+M4UB08AHyL17lfGNe65jbjOX/4yXrpd9s1NPJ6a4+yjzbJunuXQx1h2KzW+bnL54CWXjCzsE5rn5eYPTnnvMceNOmTvu0D19ielZ+/VsgenYHmuf3O5zTr/bzC2aXLo+jfLlvYHfK6fiu3/U6qv775Xnwy/33DtYu2sH19019gZ+wMl5ToZdV3gzEWVr9U/dJu3in9/xNmzzY0Tb37Lsq3B+/6vXoPHRsTR3jzLsuvLWe9Zq6pHf8sf8oid8eq75OTLzWoy9jfv2fA6ula8Ka3fzbP+6zLXCDPNzriayPeyC/dW6+8OQm/zh1QLl62Xu/NJZTGhPH7NmrS06ov3Feq5V1/YQorGYJ0+Bsmu62a1/z6fnDLyi0G2oA9x+2GA6pvDo7/a2W+s0rsRg2/X5t+b48JU7XHOtj9nzX0NjjR8m3euk7ClyZpiIec/p4QR5o0Hs4jXuvIv3c50eXeM++X7fy9kJYns/dBeNdsk6n58on+Y1HvJR+bBflYi6Fhu2efi3Gi+ObFF7/4BH3rMWp83DTxc9Deetz/aPdf/qhVt3tiv7Jr+JfctHb3/AYvZN3vtdnyZ3D38/KggzTChr3LOnn52p7ZmCtf7n5sfAx3kolCnM3u7tccwWuHYR1py1J45bc+T/ZU0DF2bhh8lrjG/41tcc5o0bXL1ocj//Bb9w1ss07pPPz7neZDWzc+/esWdpDl7n41yzpwey5+sX+RrkPVPcNu8ygKPvs1Zpr3GPAuWyHaQP5+GVq1Yf6Hpjfwofpx9zlbW7n/HS9WliePf3rAsCGot9ljgM0QrnFyYnJ58EfRHicIryNB1cIZ5fz0/PRwjxf0XCRwgRCAkfIUQgJHyEEIGQ8BFCBELCRwgRCAkfIUQgJHyEEIGQ8BFCBELCRwgRCAkfIUQgJHyEEIGQ8BFCBELCRwgRCAkfIUQgJHyEEIGQ8BFCBELCRwgRCAkfIUQgJHyEEIGQ8BFCBELCRwgRCAkfIUQgJHyEEIGQ8BFCBELCRwgRCAkfIUQgJHyEEIGQ8BFCBELCZ0g8efIk6EsQ4lhJ+AyJdrstAST+p/ws6AsQR9PpdOh0OkFfhhDHRiofIUQgJHyEEIGQ8BFCBELCRwgRCAkfIUQgJHxEQJKouo6aeNbn0Mg8y1OIpyZT7UMkmdNJn3pEsVI9cBsACRX99V1KlSrWQ5hmNNTvUzs0H5RYWE2i6nF2SxWsT0qi6in4R4mFVchoOpGvrNfO5519vExpvtZzjfHdElsjBtHvilSWBt1NjW8ep0i/noHVap/9GTQjjnLI96SzuUzp6/PoU6OE/NvngVYLc9DBWQ1jrMVyaQHnLtz3mdEM4uGmZ784PhI+QyND/FwIiGMYcQA6m01avm1OmHxz4Sy0v7G31VgoHf3xSeZ00ufsR3nKwJjC89pcL1Ip1choBnqOngACqFaWrcrmeyewBoWJ+9oBTOpFJwDdr/0BCGQ19AiwukBp1fm67rqe5OCbTKjoI1sUS1WSOR2dFfu4EKOu+ywODE/x35LwGRIZLQ7rRYo4DxioeprwepHi9yr61Fl2Hrgqk8shQqE0hpEGTOrrEJ/offR7KgfDsB66+YMqH0u1UqRKElU3vFXVOQNjwn59WSW5alcOnZOqIryV3qhhkHZ2mXWKX0W697sffCnURI3dbiVobe133+J4SPgMg4TKOHVWIiqZ+QorOR3DsJ+sCQPDftvolIF+YZnSbpxRmiyvh0k5lUBWY3zTN0zyVA7+YZe3WqpWSgMuzvW+hIo+NUpr/aDh1j5niGa91xt2FoW4YeCuizyVGNDZPOiaMmhGlC2nespqGCPsV0req0HVVCK+bZFwi10JnmdCwmcY2A9LMqESNXQiD0oU5/u8zwmTpYo1XMhqpH7iqaKajtpuMXpuQLfFrFP8LooxoeAdFiVRL4fZ2ewwOmGg0T+AFNcQp7bbIj2SAaqAQpgd6p4H/YjDroN0+vd8MppB3HOLznBVJ+0OuE6T5UNOIZ6OhM+QSOZ0UqxQKu6iGd6f/v6HlKxmhwNAGsNI0dxsETrnDMP2OZVDMpdiNBTC3CiygIZxqm41sd2N64SK/jp2uFmVkiOjpQlvFKlHdMLrdRgQQObXO3D5PElq1L5v0RmLkARq2Sjhx3XvkGxAcBxZIkL4gN1mt0Kzqy6gNl+S5vIJkfAZSr6KQ497d9uVTzew+jSEPbIaKR7R7ETZXQKygOJtBHdfm/WewzOawXh7mdISJHMAVSpFE1U30CP2UC8RIdzapbZqcv5yivMJqK3u0pqKogCZkTA7X/muMzRK2t2vgSMOu2xnwoRaWwPDRJlw9abo0OyZ4TOIK75gF8dGwmco+XshJr2RAMqpECEljZatUVny9T/cD9pShRJJVD26f7B5QOXjltWIU6fYE3A1Fkqg6lYjd+FMmBC7OFPsqQtJWDVpdcaJJDKEw74hVyJC2NegPsqwy6nuOpt1dl5WMDcqnv2d9n4t1a/y6Znt8h4ujpGEz1A6pPIBIENUMak/aDF+WSW5tEBlXUPPJanO10jmUpx9vNKn8foTLVUoDty534xO5sKY39mt7N0W6REFqFr7sxq6f8h1Jgz+bYPYje4QHZoPilY4ZTWMl5ssu4Z9yYh3ENZb+dh/y2zXiZDwGUqHVz4ZLU54c5nqag3zgk48C7WlOjt6nAwK0Zd3WDlo7c8hwy6nR4SuYrqqk/49kwzxc9D62v7SF1i9Q64k6phCa+OI3Rf/7FVWw5iAevHgaf3+lY+bzHY9SxI+Q6dKpejrQGQ1DDuMzPWaNTUfbrJSsR692vwj4obrp7xhNaOdfor5Y5Pwz0cJuWd2nGGXmzPsSqikTj2iWKyS0YzevoxHh+aPLRTzEZXVA1Ytd3s5HZrbO5ylycqA6Xr3TJW57ouXbvBYlaFnwSQm9WLvimxrv0l9tYZ5ISWzXSfkhcnJSfm/OYUQJ05+sVQIEQgJHyFEICR8hBCBkPARQgRCwkcIEQgJHyFEICR8hBCBkPARQgRCwkcIEYj/AJvMMRy0Mi3YAAAAAElFTkSuQmCC;" vertex="1" parent="1">
          <mxGeometry x="-58" y="-41" width="231.9" height="383" as="geometry" />
        </mxCell>
        <mxCell id="4SHipQYe5DLUAEDX2a7b-18" value="App" style="swimlane;fontStyle=0;childLayout=stackLayout;horizontal=1;startSize=30;horizontalStack=0;resizeParent=1;resizeParentMax=0;resizeLast=0;collapsible=1;marginBottom=0;whiteSpace=wrap;html=1;fontSize=16;" vertex="1" parent="1">
          <mxGeometry x="192" y="-41" width="140" height="247" as="geometry" />
        </mxCell>
        <mxCell id="4SHipQYe5DLUAEDX2a7b-19" value="name" style="text;strokeColor=none;fillColor=none;align=left;verticalAlign=middle;spacingLeft=4;spacingRight=4;overflow=hidden;points=[[0,0.5],[1,0.5]];portConstraint=eastwest;rotatable=0;whiteSpace=wrap;html=1;fontSize=16;" vertex="1" parent="4SHipQYe5DLUAEDX2a7b-18">
          <mxGeometry y="30" width="140" height="30" as="geometry" />
        </mxCell>
        <mxCell id="4SHipQYe5DLUAEDX2a7b-20" value="is_right" style="text;strokeColor=none;fillColor=none;align=left;verticalAlign=middle;spacingLeft=4;spacingRight=4;overflow=hidden;points=[[0,0.5],[1,0.5]];portConstraint=eastwest;rotatable=0;whiteSpace=wrap;html=1;fontSize=16;" vertex="1" parent="4SHipQYe5DLUAEDX2a7b-18">
          <mxGeometry y="60" width="140" height="30" as="geometry" />
        </mxCell>
        <mxCell id="4SHipQYe5DLUAEDX2a7b-21" value="app_layer&lt;br&gt;is_open&lt;br&gt;app_type&lt;br&gt;app_industry&lt;br&gt;app_lang&lt;br&gt;app_desc&lt;br&gt;factory" style="text;strokeColor=none;fillColor=none;align=left;verticalAlign=middle;spacingLeft=4;spacingRight=4;overflow=hidden;points=[[0,0.5],[1,0.5]];portConstraint=eastwest;rotatable=0;whiteSpace=wrap;html=1;fontSize=16;" vertex="1" parent="4SHipQYe5DLUAEDX2a7b-18">
          <mxGeometry y="90" width="140" height="157" as="geometry" />
        </mxCell>
        <mxCell id="4SHipQYe5DLUAEDX2a7b-22" value="" style="shape=image;verticalLabelPosition=bottom;labelBackgroundColor=default;verticalAlign=top;aspect=fixed;imageAspect=0;image=data:image/png,iVBORw0KGgoAAAANSUhEUgAAAUkAAAFACAYAAAAxhY5gAAAgAElEQVR4nO3dX0zU9/7v+6crS/YeEBi1SFenf/AUcPmPbRcKxewI7BW8EDKeZoUw+cWR7BgO4t2BC0zAnAslp1wwOVdVQ8iJxYuvMb/TSNCLmhWwF3Vh62qL/5ZAo/0zVqrWEQvz25C9ey6+85/vfGe0IoqvR9KU+c7n+53Pd5QX78+fwWXvvlv4GyIiYukPi90BEZEXmUJSRMSGQlJExIZCUkTEhkJSRMSGQlJExIZCUkTExh+LiooWuw8iIi+sPz54cH+x+yAi8sLScFtExIZCUkTEhkJSRMSGQlJExIZCUkTEhkJSRMSGQlJExMYfF7sD8mxkZGTgcDhYtmzZYndFZElRJblEKCBFFoZCcolQQIosDIWkiIgNhaSIiA2FpIiIDYWkiIgNhaSIiA2FpIiIDYWkiIgNhWSaGg768B1sSP+Eyha6fD58Ph/tHoAG2n1dtFQuVA+fXnOPQc9+8+u6Q330HaqLPrm/B6On2eKsOjr7oufFXivufJGXnD6WmIaGgz7K1wCU4/OVW7SYZKS1m1M00O4rJz9yrJVToRZVB0rI/3mU7gvPqdPp2t9DNUOczOujZ/8+hkKH6w71UX1vH0N5Tvzjxy1OdLEyy8/YsZhDuzopc/m51DZo+5LNPQbF4x6G8vrYszHAkKcNq1eoOxT7fDM9RjUMe2g7ZtF40dTR2beHTVkAfr675uQd5yU8bVZ3JC+jVzok//sbrwPw/965m7RNw0Ef5YzQ2npq/pOVLXTtfpMfz3SHwvAU3a2nMKvGgtirUF7owDpkwwG7CPb3YGx7yMl9x+FQGa4qgz0A7GEP4B8GlzML10YDo8o8xT88BFXVuEKXcBkG1cD0tZNccm4iC6gOHYua5urH+zhyDqCZYpefsTbgEDDtpKyvE/++I8RF6/4e9mzMAgKhA8dp87yAwbNrC2uz/JGgrzvUxzuL3Sd5pl7JkNySvYLbwf+IPM794x95+z//J678Oh3TyqwKcyYGGKCGrgOTdHw0HH3a046vDEZaO1IGnFlFjtD64amE4124XVNM/v5beirNRTC07x7VhgHDHjyeeS3oMcwA8B/qY4/zEm3HjsOx45FqMFLV7e/B2OifXxWGgvjrc+HHxbj8Y7QB5qD8FrcCa9myCwbPxbxykQu/34/LFTkyr5Js7jGojjwffe3mHoPiwFWcGzeRFQlo8/xw8+lrJ9l3eDDu2tFLDcVXgvt7MKoiZ0YDP+Z4tWHw3/7XMn77w29ANUZfHicTg19eSq9kSB548w0KHP+Zrx7/yh+A/75lEwA7vvw61MIMSC610mGYR9Z3ufF1rWeg4xfKfeVm6CVWl552fGX5kYf5Ph9m3TjJSKhtw0EfBbdb6TYaKC+E8TNHGWZxHG9rM4fV01c5+X0nfYZZCZr8DA2DCxgLHZkO+M0vdnVS5rzKJ9930tcHn+z7mi3bnFz9eF+kmvqAT9h3eQt9VU6uftwWCYvmIhf+8ba4fnw9HuCD0jo4Fw2tYpefsWFiQjJe3aE+qp1XOekxg6juUB97QhUpgGvjSoY8nlBgmyHovHYSz+HB0OM99B2CfYehsy/2OXP43HfIb4bo/h6MKidXP/ZEg3FvH53s48ixNjzfd9K3dyWXYirJPRpuLymvZEj+HzfG+K/OXA4WvA3A//Xtbb759deYFuFhc9gwRzugpcuN22fONXZbXdjoptUgMgwn6GDqSivdhlXjxNdYBLs6+WBjFv7hIwyei6/kAJp7erh6DfJ2Ac4sAuNmiDX/dROBLzwM0skHAAxyZF+0ZnI5s8xR8rkj7Iu7Zh15zmkefp/Qj2NjBPq2UMegGaaRarM4Ydge6RnV4X6Hjgwe3hcNYgD/WKSirTtUhmv6KicjleNx2oaLMaqqaY7MwobF3ksdndtcTF87GZoqAI61MVRkUP3XZjinIHwVvJIhCVC90slPs/8DgP/qzGXoYcCyXdWBLtyFjpgj+ZRHKsSQ4DgDHdGKsGHjm8AUox3nWdXVToNxm4JQZXrbvCotXW7e9A/ED+Gfs86/mZVjAGBXJ317YypJ/xCetjbY30NfaScrXdM8/DuYQQeuKoNw9u8xDPZMX009vNy1hbXc4pNziU8cZyzQFxlyR6vNniTXycPJNLcSwzYJM7Tvxfft+4dMsxIY5MgX1RhVezCMPRB3Hy5WZkHgXvxd+QPT4EzvteXl90qG5JbsFfwlZwX/59i3APw/xe+yJXsFXz8OVZOVLXTtLiIcjcEJmzCrbKFrZ8xjTzsFv4wyRQFmBTpM1YEuyoPjDBiQfxDz+Kfr6dpdQ0vlMEcXacV75e0hrhZUszJyJDSvt78Hoyh06PuHULUJ1/RVhs5BXKW1q5O+v8EnceFohmiWq5pmBuPmJ+tK18LtTyyD9Ph4AOOvzXCO6MLOfouGC+FYG55jRH5Q7DEM9viH8LSlPFNeAa/kPsmvH//KB99c43bwP7gd/A/+92+uRQMS4MJROlpbaW1tZWAi+ARXbqC9DG4b8cfKCx1MXkmYe7xwlPMTULSzharfdTdPr+2wP/7A9ENij9Qd6qT53Nfcmgb/F0mqxCwzVAyjxxzm7q9mE1e56ndRFrdfso4tBXDrcpJa89gYflcxzaGhtu1A9tw9AmSx8u3U9wjhyi+PuN2bb6+MmX8NX/cI+zwePMN+cBXTjJ+H0+DMi9/36XLOO1OWsFcyJBdM5SqYGIlb7W44aC7yWM1LDn80yqSjiPJ5q8qLICY06vKc4Kpmj/Mex/dXsykLXNs6zZDZ1UmfYWAYBsbeTWRNX+Wkx4PH08bxXZ30Vbnwf3GEI3+/Chs/oHNX+AVcrMwKcG/eUDvsOGN+F9VVriT7MuPbDl2bjvYJzAWVcFAnGDx8CX/WJj6IhHYzPVUupq8NcTy0KT52A3xzkSs0pznIkS/8ZMXex/4eql3TXP275iNfFa/kcPtJOQrd+Hzu5A2C4+b/LxwNbRaPfjLn1IetNluEXoDFm5DmIhfTt4fMlWIIzUlCj2Gu7N77q8GenmYG22IWY0LDbQhv/M7CH9mic4R9b/dg7DXoKz3JvnvRrT/JHB/3U+0ifoN6EoOH9+HqMcyhMRDemnMcLILyOG0e6DFC847EbwE68u9b6Nsbfc6clwyF4LE2PJj3YeyNvs6RJGE/ePkWH+ytxjCKk26Sl5fLsm3btv222J14kVUd6KKG8ynnJM93xA6nzc3ktyObxM2FmiIHQJDxMx3PfB7S6XyalQRzu8vKL4ZgWx5DCQsviXsh5+2NDM9JfrGSPVVO6/AIzfMFXrhPyoikRyG5RDxdSIpIKpqTFBGxoZAUEbGhkBQRsaGQFBGxoZAUEbGhkBQRsaGQFBGxoZBcIn77TdtdRRaCQnKJCAaDCkqRBaDPbi8Rs7OzzM7OLnY3RJYcVZIiIjYUkiIiNhSSIiI2FJIiIjYUkiIiNhSSIiI2tAVoKdlcS+Nf4KsTZxm1bLCD+sZsboaeL6lrZN3jE5xegH+tsaSukfI/ZQAw+9MIJx6vo6kYbvZOkt+Yzc1/wnvvv8HMWC+nL8T0q7KepmLrXyAcGOtdkL6K2FFILiWrMuHBJG81NlGeEXM8cJPe05/Na+50wMx3MQc219L4/hvEnjr70wgnBq0jN5XAWC+nqacx20ltgRl865rM/5e/b7bJKKil5MJZTt+up6l+B6OnT9N7IdSXPz/mRKjfO+qbyE98gc21NP7lLRz8T/5nRuKTwOwdRpL+wHg+SuoaKXfcsnz/5eWgkFxCdqzJ5P6/PuPs4GfxVeLmWhoba/nqxGMA3o2p8ni/iab3MYP0X8QHS2U9jdnPomcBzp7oNftY30j2v05w9kpCkwunGamrp3Yz859LouSd1+DB5xwLh/jmWhrff437/7C4vshTUkguFZtrWeuc4dYVgBLeWp2B809NNBXPcmfsflzTbwdP8ElspVZZT2N2AHgmiRjhLG6iCZj96S3qm8qJDKLDwQzALHdCoTY6ePqJqj6nI4OZn1OcETt8j/kBsKO+ibUEwOk0K+eEqnNHfRPrQqdFh/kl1DaW80ZGwvHKepoKIIATZ0bMPa2qD/0wWkdTPaomX1JauFkiSt55LTpMrlzHGzM36e0d4c7sDI9/sW4/87P5TVuSncnM4zTiaXMtjU2N1G5Or0+BsV56xwLAD5zu7eVmYJY7/+ilt7eXkZ8Coa/NMGlqaqKpsZaSpFebZSbuPnaQ7wwwaTdHubmWxuLM0OuMcIc3KK/fEXk6wwm3envp/ccdZjPeYF2lebykrpF13KQ39FxmcT07gB315aH31bwvZ3HMe5HhhNuh15nN4I0/7zCr459mk053yMtBleSSsIN1q2cIzJpf1xdnEhgLAE4ymeEHizNi5yPnzU0ugJK6RtY5M6JV5GyAwOp6dlw5zWcXTtMbWrxx1jXS9KfoBGNT0zogQCAAM7EXrMzHGZjktN1rvvMaGbP3+eEKwChnb6+jqSA7GsSBST4DuPID9//yBpnmWby1OoPA7VCoXTnLiSsAO6h3QmAsdPzCTe4UlJO5KnKxUGCP8sOD93jD8ZRvlLxwFJJLweZsZm7fhIJ1UJlP5k+3uF9QTn32HXjwA6O8xXtxJ5SQnRmqdshmbeZ9vroCpKoQI4GRnshwO7CO95wwG7jDV6fPMhoa6p8+DfVNTdTHrFoHBk/QC9YLN6ui1y7JzmQ2GEjdiYw3KG9qojy2X6H/W5/vJNNqESj2noqjj2ezS+AxMDtDGr2Rl5BCcim4cpazlFBbAFw4zQkAAtQ2vgf/PAu8lXDCKGdPjJpzae87CYz1LsgKcHR1+yYn/vUWje/HB1ZTE+ZQNI1tPYHgLPmYFel7THF/Ndz/Zxq9TjLU3WHRNHQCM7OEqspE0fnTOJXrUvdDXloKyaWqch1vzNyi9wpAdMgY++1ckm1GgbO4iXp6OW0xdxnnCVaPI0P4cPVnVYVurqXxz/OP1b/zA6cThv+jj2d4L9scKM+smuU1QtWvjdHv7vPe+2up3fwZZ6+EFmMyzQUam7N4PFPOG2t2AJ/F3fNkYB3r/rwDrnwW2S41M9ZrO+SXl59CcinaXEtjMdzsTb5YUFLXSPnq+4z0nmWUHdQ3NVI7dn/e8HT2p6fpwA7ynTNMXgEqARJWt8Gs8H7OhGDMjGnGG5S/H+Bm7yhsTqh+f5mBNU6cZMCKTDLuTaaufq+c5cSqepoiq+kBbvaGVrdtTvvs9AjZjeWh+VCzIj57BbgSf3z2p5HQ6nbya40+nqH8T1rdfpkt27Ztm36d9ZJQQm3jOh7/c4a172dyq/c0kW/J2E3igZv0/pxP05rJ+d+0iZ/YqQwNlZ90M3loPvEW61jnTNyQHruNJmb4Wlkf36eEOUkIf4pnhpux9yaywBSSIiI2tE9SRMSGQlJExIZCUkTEhkJSRMSGQlJExIZCUkTEhkJSRMSGQlJExIZCUkTEhkJSRMSGQlJExIZCUkTEhkJSRMSGQlJExIZCUkTEhkJSRMSGQlJExIZCUkTEhkJSRMSGQlJExIZCUkTEhkJSRMSGQlJExIZCUkTExh8XuwPybGRkZOBwOFi2bNlid0VkSVEluUQoIEUWhkJyiVBAiiwMhaSIiA2FpIiIDYWkiIgNhaSIiA2FpIiIDYWkiIgNhaSIiA194uZJeNrxbZ5ioOMow3ZtyvLTvuTkpVa6jWfSOxFZAArJJ2GMML7ZTc2BKoY/ShqTEBy3D9KQhoM+Cp5pB59M3aE+9hTc4uS+Iwwme955CU/bccvHz9z+Hoyisej1Ex+/THZ10rd3Lbc+3seRc4vdmRj7ezCqXABMX/uOwMbXePii9HFXJ31/g0+S/H1cLArJJBoO+ihfk+TJQjc+nzv+WGwwOopwd7VAx1GGqaKly03OlZiKMVSRjj9euP6/jJqLXPjH25I+fqmcO8K+FyF4EjQXuZi+dpJ9hweBZnqM1xa7SxF1pWvh9icvVECCQtJW2kNhTzu+zTGPg+OM+N80K85r63nTMclUgY92j3m9hoJ8gv4RfskpImehOp+2lVT3GezJMh+Fv4HqDvWxZ2MWUI3Rl8c3t9fyX2Ien9x3j2qjjIfDt1hbtYksgOmrcVVpc49BtSv8On6GPG2YNWEzPUY1DHtoOxZ+vplil5+xtoTH4z0YBrbn1h3q4wPuE9j4Ttzx5h6DaoaileiuTvr+9r/xh6xMfknZLrGiaabH8n7vUW1UE6rNuBquyhIryV2d9O0NnRfzPodf61ZgE5tcgD/Uj5iKL+662FyL6Pth/tnFvu91dPbtYVMW4NqDYfwb/4s/8AfAtdeg5+3YP4sYtq9l/lm4LJ4LjzqGqI78HfAPexjKi+mbP+Y9p44tBXDr31+0iNTCTVKnPmyl26iipcuHz2f3XzsNRjetCcPryY/O86OrhvaKN2FihO4PR6CsnQYaKFgT5MdrqQbjz0mWC77w4PF48Az7ydr4AZ27YPDwPk5emzb/Iu87wv+d8Nj8q5zFpqqVXPKY5w8FNrGnr5M6zG+SaudVToaeO3nNSXXoOThOmyfhm3J/MS7/GMcTHx8bw4+TvF0xxwFnXl3oQOib63I7Y/7Y480Umw2JtCxdC7f/P/6RVruvLSqaLDZtg088HjyeIfxZm9hjlPHw49D9+7PY9Ndmize5mZ69mwgMh95nzxCBjXvo2R++7CbWBk6az0UC0snVj8N/LgE27e2jc1fqa5kBGWAo9n03emhmkCP7PAz5zTDzeP6Nf/MM4Weaqx8nCUjb1zID0nntZNxzfYfqoqe7qikeD/djGleVYU7XeDx4Pr7KtKssdE/Ari2s5RZfv4DVt0IypSDjZ1ppbbX478w4waTnDXP0yhT5awgF4im6L0G5r5z8n0c5euH53YGt6asMhb9Bjo3hJ4uVb6d/un+4LRJsx/9+lemstWzZNb/d4OF9MeE6X12ek+mA3+Lxccb8WawtrYse9/uhYIsZajHfXMfH/WRFjufhnPbjJ9yfcJgOpt3O8n6/CN/Dccb8gP9SpMI7Pu6PC9vIvRwqwxX7Ps/7ITEd83p1dG5zMX3tk2jleKzNJoBjr9VM9casuD+TwcOfcHXaRdmhxF6lZtfv8HOfRKrK47QN+8naWE2klzHnDl6+xTTTXP17qGfnvubWdMzftbdXkhW498INtUHD7TQ4KNrtw7c72fOTSc+sWpUDOHhzYxVcGAbjNpNl+XD71EJ0dBFM8/D7mIfn7hHYu4mVb8Pg4UtUG9XsMQz2JA4X50kcasU/9gemyXK6Yo6PsXKvWVHGzWN9/5DpqpVxx8eceyh+m0iYfnIO2JVmu3TegZhgT8blzIK0A8DFyiwI3Itv7Q9MgxPgOEPXythTZWBUET9k3ZWHk2luxf6ZMMi9wB7WpvXa6ffb8rnvHzLNSpsrBriX5H19keefFZIpBRk/0/HklV9lCzWFMH5pnDfLymlgmMkDJeQHgwTLzCH60nacNs9xCM+F7TUw9sbOS8ZIDKaEx4OXb/HB3mKagZVZAcbOHefeXw2K9wNOuPX30Lfqua+59bc9oeNZBMYHOX6vGqOoGVgJt4fMb+p0272gBg/vM/u3vwejqhrDqDbnAy8vds+eVuJ89ItFIZlSqkoSghMDdCRsCVpfUYTj5xGOGqeoWtVFTVcXDn5koOMo+Qd9lByoYnSBe77wEobmSSqZI/vCK6nVZjAlzH8lrmrOW+U89zW3/vYBeYfMeco2oC4wTVleJ8XOWwydi77W17c/4IO8zug33a6HTG/Lo7PIGQ3TtNs9G/7ANBSYw/DUV/bzcBrW5sW3djmz5jc91obnWHgr1xbqDkcr+ag68pxA4Nn22/K5t1di0cvU9kf/XF9EmpNMyWZOsrWVkZ8tTnEUUbRmkpEPzWH18EejTDmmGAkt7pz6cISpwvJF3SP5rLi2dUbm4Jr/uoms0Bxd3aE+jL7oc+aCi58xiwUClzMrbniZ+NgcMmaxaaMrMrwdvBcga+MmnAkLLOHjrumH+MGcAsjaxCZn/KJAuu2ehcHDl/BnbaI6vFBDHZ19RvwiR8y9HvkiuoAGwP4eql3h+bxmegwjuuhDHVsKspi+/TWDHGfo2jSuqp7IvGDdoQ/YlOXn0uEnD367foef++BQdAGsp8rF9LWh+SOFFBLno180qiRTSqOSnEo8kLiZ/BTdrbENzMeLvZk8FXOYW41hFJvD5LjHYwD4AytD846EtsSY3yKDhz9hS9+e6HOhecn523iSbP1JKCuOj/updjmjCxzHxvBXuSBh7i58PBqexxnzV+MiYf4sZTtzmmDt7fjtNU/nOG0f59G3NzSPCOZc4uFB2LVlfvNjbXjowdhrYOyF+C1Ax2kbLsaosrgW5lCcQ33sMQyqzSetpzhi7rl6r0Ff6Un2HXYlbK+y6TfQ5oEeYw+GEfoTvvY079WLu/UnbNm2bdt+W+xOvLiqaOmqgU+Tz0k2HPRRMhUz3E7x0cWqA124Cx2hR08532nB6XT+/os8Eau9jiJLj0JyiVBIiiwMzUmKiNhQJblEPP9KUuTVoEpSRMSGQlJExIZCUkTEhkJSRMSGQlJExIZCcon47TdtUhBZCArJJSIYDCooRRaAPru9RMzOzjI7O7vY3RBZclRJiojYUEiKiNhQSIqI2FBIiojYUEiKiNhQSIqI2FBIiojYUEiKiNhQSIqI2FBIiojYUEiKiNhQSIqI2FBIiojYUEiKiNhQSIqI2FBIiojYUEiKiNhQSIqI2FBIiojY0L9xs0RkZGTgcDhYtmzZYndFZElRJblEKCBFFoZCcolQQIosDIWkiIgNhaSIiA2FpIiIDYWkiIgNhaSIiA2FpIiIDYWkiIiNRfvETcNBHwW3W+k20niusoWu3UU4EhsGJ5kkH67EtPW04yuDkdZuTkWvSLuvnPwUfQpODNDx0bBVb2n3lcMl83WqDnThdv3IQMdR5rX2tOMrS/VK6bzmIlhfg2erg+/6B7j4FO037PRQ6viO/jOPqPGU4vi+n4HPU12kArc3j3upXnO7G+/bQS4b57ke98SGFK9Vgdv7DsEvDc7fSN536/MKyU3R+7nJyxifXrd4xjyfb81+bdjpoXTVA4v+h+7t3VSvlM5rykJYtJA8dXGcrt0+ulYlhISnnfLscQZiw/PCUTr+1I5v85QZTJ6YrzFDtd3TSrfRQHtZDuNnOmICEqhcRQ5Bxs90cPRCFS1dNfBpB0cvRJs0HPRR8It1WDUcLCf/5xFaQ30a/miUcl855R4YTgx5ozvSLpWGgz5K0mv6XGx4azXLp75LLyCBiuLXYfJypP31X2coXbWCDVzk/DcuPFu9uAmHlxlmry+3vlau10th4sG5u9ahAjGh6bfv5PY8cuceMHEj/vCGt1bD5Gjye12/gkzmuPulwfkbG6jxlMA38UFbsdtL3q/WYVWxu5DcqQn6Q8F9/dPvKPQWUrgdrieG+ecDkXapVOz28k56TeUZWbzPboeDr6ycBobNUKtsoassh/Ez3fMrNBunPmwFzDDLmRig+0JCgz/l4Aj+yI0LAMMc/XQ9Xbu7aCE+KK1UHeiifM0kI62xsXuK7ksF+MraaTC64wP5JeL2ei0qpUK83nlxFRIODWB9De/kPOK7M0kqmhvnMajBs9VNxecDXOQ6541kFVcalSTA8tcp3V3B9TMXqcjLZe6XCa4DriTNK3Z7KcwByKXU66WUcBWWS2H+cpZTitdbGj1haoL+M6FerHSwfO4B/hsA10Oh76GGhIrUwoadHgpzHjHRH3tHFxn4Ng/vu+H3Q14Wzz8kLYbO5T4f5TGPi3b78O02v568FDOUdhTh9vlwAwSnrIe2a9z4fG74eYTWD834qlqVA49vR4M3HNAVDXDBJuI87bgLYfyMRRAa3Qys6sLd1cJkeNidbFrAwuSlVm6n0W4hDfT3R77esNNDCaNpD+Mqil9n+dxdHsUefBhk7t3VlHi8lMZUjIVeN/QPcHF9DZ6tr2NVTFpVko9CQ9WK3V7yeGRWlvfy8OysYSYHlueU4vWGGr/rxftu5Ewm+gfirhG9R7PKy5y8TH/svW53482LPtywIhOC96JV7I3zGCvdeIsr4IZNxG13U5oPd7+0CMLPB7i8wkOpp4ZH4QrZ5j1J9Ojbfu6l0U6erWXbtm37bbE7Yc75FXC71aYq8yQfboNZ8dVwPn7o/gShFWUOy29s7MJd6IgPaQtVB7pCQZq6Kk3UcNBHydSzmZN0Op1Pf3Iac2Jx82Dh9nN3ufy9g9KEc59szixVJRmaU5yc4fVV5pwkkbnPi9jNSVbs9pJ3LyEkV8Hy5TNMJL7edjfevHv0j61IO7Ri7pi7Xxr43/JQmr88LpitbNjpCQVp6qo0UcVuL+8ENSf5PC2ZX5WWn+OAqYSDF47ScSFxIaiB9q5VjMQtuiTMU1a20FUI42da581bJoba8EcdZminOXx/4YQCzy7YwhWYqQL3u7k8mnpEroOE+bRQoP1gcZ0UFZPlnCRz3L3/gMy5B0z86uD1VQAbcK2Cu9885YD1l1H6P4Uaj4eamDnGDSsyzS9unMe4kRiwFbg9K5iImx9NmKdcX4MnH+5+2T9v3jIx1K5/anB9uxtvmsN3WVzPOSTtV5nzE4bdpsnoSnXCcHv9QR/uNTFNw0NtgJiFmlXZsdc7xe3HPmoOVDGcrIILhWscT7s5N/mhxTlxizVVtHS5KUpSvr5Qq9mhxY+JyUwK8xPm5xLMTYa+WL8CJi8z8Gsh3rcTWz0iOLccx0qLC4TCJ05ohfnBZCaOXw37lfDtbszeJZvbtJYbNwwP38d1zhu5uL1e3CujVd9cMDx5sIEVcX9+F7kX9FKycwPXk1VwVve33W3OTVrN28b9cLFf1NJq9uJ6ziF5iu7W+QNqc8iaemhLcDxmuA03PmzlqHkFM5gYt9iWk0+OI8jUTzG9+HCEAl8NLZXDaVZ+VbRszmfyUmt0gSYNM7UAABdRSURBVGl3DqM20wNW9/KirWZ73o4OX9OuJG+cZ+AGsN1qcec6/l9KKM2rgJRLExW4t67mwZcG529U4PZ6qHkYXkku5fXlc8mHo1bTA7FhGLMAYzUnabrIQD+4veZCStzcKrk4ls8RfBg9cvHMBHneEmrWX0+z8ttAzdu5PPq233wn0theZTVM12r24lv84XZlCzWFU4y0nmdVVzqrxQ20l+UD+bh9Xaw/08FR1vMm44w/LrLelsMUv8SF4SlGJkqo2VgFF4Yxg3T+aD2s6kANRY+jW4AiCz+xizYvIcM4D8AGYHm6lWQK1394QMnWd6hZfzEUJhZzhuGQm5owA5eLDHy5As9WL96tc9z9sp9+uyCyqMLS25OZyAxK8yqJZvj1Rnzbicl3KHlrA9y4jhmkEExy5Q07S3g9GN0CFFn4iV20kZfC4oakpx1f7L7GjnzafT7aE6uwyha6IsE4ycilSfIjCzdVtHQVMXWllaM/tdC1OyFoK1eRQ/68FXRT7PAc8nf78FVEV8XDr22GeEJ0G92MFCQftueX+fCVzb/lYLIkXmTpz0mmcOM83xV7KYysAsdWZaEqMThB/7fErSabw1VzA/brqVaQF0BubOKtX0EmuRRazpPG/zDJ3erFWxyzdQhgfQ0l+TMJW4CAzweYyEs+bE+cGgibS5bE8lwsTkiGV52D4wy0xu6JPEV36yQtXT58ZTFzkYlzhJ72UOCFhtmRKi9U4fm6WBVebbaaX5yngXZfCVPzVqgbaN/9Jj+GQ9xqtXyNm3bP8Lyhdcqpg5dIrl3JZMEcmhbi2fkI44cV5sILNXi8q3kQrhK3mz+czJXe5YS37Qz0XzQrTa+XuH2ZT9t3yznJROYc5My9UHBZzS/Ok+STPDHTCNFhdsKCVU4p7u3X51W+qVbFZXE835CMC8fWJMPUYY52DGMGlw9fZAEmsV0O5V1ucvwDtMZWckY3raRabbZYXPl5JGETenSRKT+8b9Oq35UtdFU0QKR2DfffSuLCVZKFoBdB3LzfHHfHnmSAGJ7vK8Wbb1ap129c53rsqm9eLuTkUhK8TH9/wrXtPoGSbJU8IQzDewqTzkkmzmvO3eWybUBZLK5EpgsidxX5KGPuVi/eraHr9vfHD6/X1+Apjp23tVuMSvx4ZJKFIFkwL8g+Sfm9ftc+SRFJSr8FSETEhkJSRMSGQlJExIZCUkTEhkJSRMSGQlJExIZCUkTEhkJyifjtN213FVkICsklIhgMKihFFsDi/xYgeSZmZ2eZnZ1d7G6ILDmqJEVEbCgkRURsKCRFRGwoJEVEbCgkRURsKCRFRGwoJEVEbCgkRURsKCRFRGwoJEVEbCgkRURsKCRFRGwoJEVEbCgkRURsKCRFRGwoJEVEbCgkRURsKCRFRGwoJEVEbOjfuFkiMjIycDgcLFu2bLG7IrKkqJJcIhSQIgtDIblEKCBFFoZCUkTEhkJSRMSGQlJExIZCUkTEhkJSRMSGQlJExIZCUkTExqJ94qbhoI+C2610G2k8V9lC1+4iHIkNg5NMkg9XYtp62vGVwUhrN6cAqKKly03RvJMtBMcZ6DjK8Pwe0e4rh0vm61Qd6MLt+tG6racdX1l+Gi8WesmJATo+mv+Ki2J9DZ6tDr7rH+DiU7TfsNNDqeM7+s88osZTiuP7fgY+T3WRCtzePO6les3tbrxvB7lsnOd63BMbUrxWBW7vOwS/NDh/I3nf45nXfH15qr4Dc3ct+hR+3UL41uzXhp0eSlc9sG673Y333dw0Xiz0kpOXMT6d/4qyMBYtJE9dHKdrt4+uVQkh4WmnPHucgdjwvHCUjj+149s8ZQaTJ+ZrzFBt97TSbTTQXpbD+JmOUEACDHO0wz6EGg76KF8Dk1esAhIaDpaT//MIraE+DX80SrmvnHIPDCeGvNEdaZdKw0EfJek1fS42vLWa5VPfpReQQEXx6zB5OdL++q8zlK5awQYucv4bF56tXtyEw8s+eHK9XgoTDyYNIGJC02/fye155M49YOJG/OENb62GydEk93qd84Z9CFXs9lKYA4++t+5fxe5Ccqcm6A8F9/VPv6PQW0jhdrieGOafD0TapVKx28s76TWVZ2TxPrsdDr6ychoYNkOtsoWushzGz3RbhlUypz5sBcwwy5kYoPtCumeGqkzGGWi1DsiqA12Ur5lkpPVUzNFTdF8qwFfWToPRzSmL814Gbq+X+fVLIV7vvLgKmeNuuCJbX8M7OY/47kySMLlxHoMaPFvdVHw+wMWkwZNmJQmw/HVKd1dw/cxFKvJymftlguuAK0nzcJBBLqVeL6WEq7BcCvOXs5xSvN7S6AlTE/SfSdWLUNhzl8v91gG5YaeHwpxHTPTHXusiA9/m4X03/H7Iy2LZtm3bfnuur5hs6JzEZGiIO28YGxxn4EoO7mRD259HaP3QJr5C/cBuuOtpxxeqTI9aBO+8YfcT3NvkpVZuF/gomXo2w22n0/m7zt+w00MJo2kP4yp2eyl0JFR662vwbF0Nc8tZHlcxPmKif4CL62vwbH2ddEaxAI9CQ9WK3V7yeESuI8jl7x2UrAgyk/+6RcDHvx67veTdiw7Dw/f4naOUd4IJQ9btbrx59+xDMtR/7Ia72914382M/jBJMG/Y/QTvyaNv+7mX553fd1lQz7+SvHCUjnmB00C7r4DbrSmqsvCcoacd32bihrZVB7qo4XyagVNFy843+fFMq2X4ha/nLnQweSl5m+GPOuBAF25fF+vPdHDU8t6SaziYftsFtd1Naf5ySKysYsTNg213mxXaHJbzaXO/XKbf6pv4xnmMecGRqpKsIC9njuAk5DqAzwcY3emhNFL1JZ+TrLC63KoSCpc/YiJZBZzUBmr+y2oefNlvGX4QCsD85Tz6Nnmb658asNNDqdeD60uD85bvSXIVu5+w2/K7LZlflZaf44CphIOpKrvdPnwWf+kmH4yTsxrGE0K04eD8ym/4ow4ztHd30YJ1xflCC4Wc3WKAWYGFVeB+N5dHU48ioRWdTwstkvxgcZ0UFZPlnCRz3L3/gMy5B0z86uD1VQAbcK2Cu9885YD1l1H6P4Uaj4eab6LV3oYVmWn1k61evFvnH370P+6S+Z/gbkKIVuyeX/ld/9Tg+nY33q0earCuOOXF8ZxD0lwlTrb2m+/zUT7v6GR0pdpRhNvnww0QnGL9QR/uNTFN17jx+dyhB0HGz3TQ0Wr1SlW0dNXAp08Qap52c27yQ4tKNW6xxn41/YVazQ4tfkxMZlKYn7yKBJibDH2xfgVMXmbg10K8bye2ekRwbjmOlRYXsKqYQivMDyYzcfxq2K+Eb3dj9i71okqs3He9eN9NvI/rnDdycXu9uFdGK9C54CO4cTFJZbeBGk8JfPMEobbdbc5NWlWtcT9c7Be1tJq9uJ5zSJ6iu3X+gDp2aGu1JSgiYbh948NWjppXiC7AWG7h+b2qaNmcz+Sl1ugC0+4cRm2mB6zu5UVbzfaEttSw05N+JXnjPAM3gO1WizvX8f9SQmleBaRcmqjAvXU1D740OH+jArfXQ81Dg/M3woExl3Rez3LLTGwYxizAhOc1590HFxnoB7fXXEh5lKK3T24DNW/n8ujbfvOdSGN7VWxfw7SavfgWf7hd2UJN4RQjredZ1ZXOanED7WX5QH50LpD1vMk444+LrLfl/E5VB2ooehzdAhRZme9qYXJBQvn5MIzzAGwAlqdbSaZw/YcHlGx9h5r1F0MBZzFnGA65qQkzcLnIwJcr8Gz14t06x90v++m3q9YsqrD09mQmMoPSvMqztWFnCa8Ho1uAuHEeY6Ubr6eGR8m2NckLaXFDMmb1+BRARz7tPh/tiVVYZQtdkWCcZOTSJPmRfZJVtHQVMXWllaM/tdC1+xlvy4mEeMIVjW5GCnzUHKhi2GL4nF/mw1c2/3LBxHnTF0T6c5Ip3DjPd8VeCosr4MZFIBfH8jmCDyEyrAxO0P8tePPizzNumBuwX4+c+/zkOpZD8BldbH0NJfkzCVuAgM8HmMjzUrJzA9ct3uvEqYGwuWfVL3kqixOS4QWV4DgDrbF7Ik/R3TpJS5cPX1nMXGTiqrGnPTR3GRpmR6q8UIXn62JVkm07pnys1nnma6B995v8GA5xq4WgNW7aPcPzhtYppw5eIk8aIBfPTJDnLcSz8xHGDyvMhRdq8HjN1eH+G8B2c+44vCIc3rYz0H/RrDS9XuL2ZT5t3y3nJBNtYIUDZu7Z1Xe5pPc2RKcRosPshIWgnFLc26/Pq3ythtuy+J5vSMaFY2uSYWr4EzINtPt8+EILMPMDL4fyLjc5/gFaYys5o5tWrFabExZUguOM2C7aRBeZ8sOr4Fb9rmyhq6IBIrWr3Sd8EheukiwEvQji5v3muDv2JAPE8HxfKd58s0q9fuM612NXffNyISeXkuBl+vsTrm33CZRkq88JYfjo237uYTMnmTivOXeXy/NeM2FBZe7uvE/uxDMr4VwgN7wKPneXy/398cPr9TV4imPnbe0Wo6LXDN3ZU2xfkt/j+W8mlwXxezeTi4g1/RYgEREbCkkRERsKSRERGwpJEREbCkkRERsKSRERGwpJEREbCskl4rfftN1VZCEoJJeIYDCooBRZAIv/W4DkmZidnWV2dnaxuyGy5KiSFBGxoZAUEbGhkBQRsaGQFBGxoZAUEbGhkBQRsaGQFBGxoZAUEbGhkBQRsaGQFBGxoZAUEbGhkBQRsaGQFBGxoZAUEbGhkBQRsaGQFBGxoZAUEbGhkBQRsaGQFBGxoX/jZonIyMjA4XCwbNmyxe6KyJKiSnKJUECKLAyF5BKhgBRZGApJEREbCkkRERsKSRERGwpJEREbCkkRERsKSRERGwpJEREb+sRNElUHunAXOtJuH5wYoOOjYesnPe34ymCktZtTz6h/z1YzPUY1DHtoOxZ7vI7Ovg/g3/dx5FzM0UN97NmYlfbVp6+dZN/hwWfWW5HnSSFp5+cRWj9MHWtVB7qoMb+ipctNUZJsLff5KE88GBxnoOMoSeL1OTlOmwd6DIMeQkG5q5O+vZsIDHtoO2dxin8IT9vxlFeuO9THB8+8vyLPj0IyhVQVZXBigPMJxyYvtdJtpHFxTzu+zb+re7+LZUVYZWBURR9mxT32M+Rpw293fozpayf55Fl2WGQRKCRTGP6oI6bKa6DdV8DthGFz1YGacGuOdgyb4efLT3nt4MQArR2LV0MOHt7H/EFwHZ19e1j5ReLQO7aF1fnN9BjFjHnaiK0v6w6pjpSXm0JyIRjdtIYqyYaDPsqzX4QhtRUzEDdZFYMJFSVMc/Xj+LlJkVeBQjIVTzu+sviqMD9mbnHyUisjFqeFh+nBiRHGs8txH2xgODK/2UC7r5z8NOc8F84gR/Yl1pKpK8mI/T0YVa64Qy7DoDr0tX/Yw9Cz6qrIIlFIphJTFUaH27dZdWCSo6HV7KoDsc+Xk09oKN06bFaSjiBByunqKsHhcABBxs+00n3hud9NnM4+w7qKBItKEsLV5Nfhh8fa8ESCNDzcHiPvkJ8jodXsukPPutciz5dC8mlUTkKOm3bPcMICzSm6W83KsOGgD5/PbYblh5ir3vzIwKUc3JunuLHIAQlwZJ/H4qj1tp+4FqU2F93lB+ceevYPpq5ERV4CCsmncWGYoxfyaT/YAPFLOJEtQJOXWmn9kOgizs+TTK7JId/oZqTAlzD8XhzNPQbVriRP7jUw9iYejF/dtnRukCPnXPT0NAOptwiJvOiWbdu27bfF7sSLqOpAF+6cHxnPLkq67xGA4Dgj/jcp4XzcZvLI1qHIPsgG2n0lTJ3p4OiFUJjy7BZ0nE7nM7iKOR+5NuAH50M+2XfEYvU7tPXHeYurzk3Jh+sA01cZur2WMj7RZnJ5aamStPULRztaU7aqOtAV/ipSSYbnJCMqV5HDFLcvQHirUNWBLty+Ltaf6eDoIg+/w3seI5+O2dVJn2GwJ1Q9zq8J7yUZrs+/rsjLTCFpZ005Pt+8z8hYCk5AZJ9kWGULXbuLcETaDMQNzuP3YD5/sQs309dO4vHEVHvnjrDvHJgLMgbm1GvMwo2rGsOoJh3T155lr0WeL4WknSf+WGKCC0fpeAEWaJJJpxI0P7IYX0fWlaKPJcorQ3OSS8SzmZMUkUT6VWkiIjYUkiIiNhSSIiI2FJIiIjYUkiIiNhSSIiI2FJJLxG+/aSeXyEJQSC4RwWBQQSmyAPSJmyVidnaW2dnZxe6GyJKjSlJExIZCUkTEhkJSRMSGQlJExIZCUkTEhkJSRMSGtgAtITvqm1iX8tdKznLnHyc4eyXhcGU9TcVws/c0nyV/Beqb8pmMbVNZT2P2TU4Mjlq0XUfq7txh5MRZRsN9WDNJ7+mYHlgdI917BQI3550buW7BTPS1RZJQSC4xsz+NWARWgsp6mpqsE2ZdUxPrEo4Fxno5/VS/YT1gH7qba2n8S/ThjjWZ3PlXQhhaHEu7X5X1NK0BKKG2sZw3MhIbOClvaiLuH+iIDW0RFJKvpgun6Q2Hy7wK0qwASRZAszME0n4hp2Xoxl/vDnEh9n4TTe8TqgAh35mBM3wMEipDu2o1wM2xhMe2VXLoeo3ZadyXvEoUkq+qynqaiqPxMi/MiptoKk5drZVkZ5LhSDbuTQymEmob1/H4RGJYlfBWbNtQBVhStxbGeqOBvrmWxj/HnvcZp3tjA3P+VIB5T6OcPQG1jU00zasmY6iKFAsKyVdYZGi+uZbGPz/mxOkAtY3vwT/NOcuSusb5VWBG5vzKLTObEkgSLhZD3ZhATh7C+axbfZ+btv9c9/xrO8PXnr3DyO3YtqOcPRHqoeYj5QkoJJeYmcdP+G0fCQyz/jr7z7dofL+J+lW93ExsuzmbzNlM1jbVQ6hiczoyrIMzTrhKjK8kd9Q3kR9pkzA0D9zk9D+zaWyshaRhFhN8oUpy5qdMXuMrM/wr6+PnG8PD88BNRh6s5b26EkYHFZxiTyH5SnuL+gII8Eb8AsZsgJmCRtbNAI9jmq/KhAdfceLxOpoaawmceEy+M8CdnzLJrwQSK8LQ/GV2YgDGVpI/hw/OH25z5SwnqE0RlPEeD57gh7pG6itHOR05Gp67DHCzt5ebdY2Ur54hwHvU17+H05lhznWesJ+xlFeTQnLJKCE7c5aZX57knB84fQJqG9fFzOWZixc3T5yGhOH2jjVOZn4ehQuj3FzTRHkTZsX3XTaNf6ml5EJMkG3OJhOIr/aSzUnauHKWE6vqaawrYfS7hOeya2lseoPYkbyzqcn84k+N1P40EzoamrvcXEtjUxMZgZv0nghQ21jOa8ERRoLv8d4TLEfJq0UhuVRsfovXuM9Xifsf05JQ6c3esbh+LWsz7/BVqFr87F93WPt+JrdCK823/twUP3xdlQkPbkJdI01/SlgtiVskCnCzd97APt6F05wAqFxHRmxp+/gsJ+zmLCvraXJApJKcvcNIby+jm2tpbFrHzE93YPVbcOIr7jeW01TvtN5TKa80heSSUELtX95g5nbvU86nWW+P2eHICA23E66/uZbG999gZqw3cs5np2+S31RuDnMvlFBbkMn9f47CO+/FLM6EK8mbZDeu4/GJSfKbwrOSiXOSk/PvMjuT2WC04nOGVuDtb22S6Cr4DuqbmiiPDcvVEK52S+oaaWpaa73ZXl5ZCsmlYPNbvDZzkxNPteE7djgM8SvGAW6eTrx+KDDnrUp/xul/ZNP4fiO1K+/z2swtTlyBknfMZ+M+IdMUmv1scsLsHW4C2VZzkpgr7OWRSnSWO/+I9jX9zeSxc5IjzDSWR+ZgA2PRHyyjgye0aCPzLNu2bZt+57+ISBL6BRciIjYUkiIiNhSSIiI2FJIiIjYUkiIiNhSSIiI2FJIiIjYUkiIiNhSSIiI2FJIiIjYUkiIiNhSSIiI2FJIiIjYUkiIiNhSSIiI2FJIiIjYUkiIiNhSSIiI2FJIiIjYUkiIiNhSSIiI2/n9dmcC9qaJAJAAAAABJRU5ErkJggg==;" vertex="1" parent="1">
          <mxGeometry x="478" y="-57" width="286.85" height="279" as="geometry" />
        </mxCell>
        <mxCell id="4SHipQYe5DLUAEDX2a7b-23" value="Factory" style="swimlane;fontStyle=0;childLayout=stackLayout;horizontal=1;startSize=30;horizontalStack=0;resizeParent=1;resizeParentMax=0;resizeLast=0;collapsible=1;marginBottom=0;whiteSpace=wrap;html=1;fontSize=16;" vertex="1" parent="1">
          <mxGeometry x="533" y="256" width="140" height="182" as="geometry" />
        </mxCell>
        <mxCell id="4SHipQYe5DLUAEDX2a7b-24" value="name" style="text;strokeColor=none;fillColor=none;align=left;verticalAlign=middle;spacingLeft=4;spacingRight=4;overflow=hidden;points=[[0,0.5],[1,0.5]];portConstraint=eastwest;rotatable=0;whiteSpace=wrap;html=1;fontSize=16;" vertex="1" parent="4SHipQYe5DLUAEDX2a7b-23">
          <mxGeometry y="30" width="140" height="30" as="geometry" />
        </mxCell>
        <mxCell id="4SHipQYe5DLUAEDX2a7b-25" value="is_right" style="text;strokeColor=none;fillColor=none;align=left;verticalAlign=middle;spacingLeft=4;spacingRight=4;overflow=hidden;points=[[0,0.5],[1,0.5]];portConstraint=eastwest;rotatable=0;whiteSpace=wrap;html=1;fontSize=16;" vertex="1" parent="4SHipQYe5DLUAEDX2a7b-23">
          <mxGeometry y="60" width="140" height="30" as="geometry" />
        </mxCell>
        <mxCell id="4SHipQYe5DLUAEDX2a7b-26" value="official_site&lt;br&gt;rel_per_company&lt;br&gt;rel_son_company&lt;br&gt;country" style="text;strokeColor=none;fillColor=none;align=left;verticalAlign=middle;spacingLeft=4;spacingRight=4;overflow=hidden;points=[[0,0.5],[1,0.5]];portConstraint=eastwest;rotatable=0;whiteSpace=wrap;html=1;fontSize=16;" vertex="1" parent="4SHipQYe5DLUAEDX2a7b-23">
          <mxGeometry y="90" width="140" height="92" as="geometry" />
        </mxCell>
        <mxCell id="4SHipQYe5DLUAEDX2a7b-28" value="BatchQuery" style="swimlane;fontStyle=0;childLayout=stackLayout;horizontal=1;startSize=30;horizontalStack=0;resizeParent=1;resizeParentMax=0;resizeLast=0;collapsible=1;marginBottom=0;whiteSpace=wrap;html=1;fontSize=16;" vertex="1" parent="1">
          <mxGeometry x="-290" y="451" width="140" height="195" as="geometry" />
        </mxCell>
        <mxCell id="4SHipQYe5DLUAEDX2a7b-29" value="status" style="text;strokeColor=none;fillColor=none;align=left;verticalAlign=middle;spacingLeft=4;spacingRight=4;overflow=hidden;points=[[0,0.5],[1,0.5]];portConstraint=eastwest;rotatable=0;whiteSpace=wrap;html=1;fontSize=16;" vertex="1" parent="4SHipQYe5DLUAEDX2a7b-28">
          <mxGeometry y="30" width="140" height="30" as="geometry" />
        </mxCell>
        <mxCell id="4SHipQYe5DLUAEDX2a7b-30" value="add_time" style="text;strokeColor=none;fillColor=none;align=left;verticalAlign=middle;spacingLeft=4;spacingRight=4;overflow=hidden;points=[[0,0.5],[1,0.5]];portConstraint=eastwest;rotatable=0;whiteSpace=wrap;html=1;fontSize=16;" vertex="1" parent="4SHipQYe5DLUAEDX2a7b-28">
          <mxGeometry y="60" width="140" height="30" as="geometry" />
        </mxCell>
        <mxCell id="4SHipQYe5DLUAEDX2a7b-31" value="name&lt;br&gt;user&lt;br&gt;res_json&lt;br&gt;all_time&lt;br&gt;url_num" style="text;strokeColor=none;fillColor=none;align=left;verticalAlign=middle;spacingLeft=4;spacingRight=4;overflow=hidden;points=[[0,0.5],[1,0.5]];portConstraint=eastwest;rotatable=0;whiteSpace=wrap;html=1;fontSize=16;" vertex="1" parent="4SHipQYe5DLUAEDX2a7b-28">
          <mxGeometry y="90" width="140" height="105" as="geometry" />
        </mxCell>
        <mxCell id="4SHipQYe5DLUAEDX2a7b-32" value="Config" style="swimlane;fontStyle=0;childLayout=stackLayout;horizontal=1;startSize=30;horizontalStack=0;resizeParent=1;resizeParentMax=0;resizeLast=0;collapsible=1;marginBottom=0;whiteSpace=wrap;html=1;fontSize=16;" vertex="1" parent="1">
          <mxGeometry x="-53" y="459" width="140" height="148" as="geometry" />
        </mxCell>
        <mxCell id="4SHipQYe5DLUAEDX2a7b-33" value="headers" style="text;strokeColor=none;fillColor=none;align=left;verticalAlign=middle;spacingLeft=4;spacingRight=4;overflow=hidden;points=[[0,0.5],[1,0.5]];portConstraint=eastwest;rotatable=0;whiteSpace=wrap;html=1;fontSize=16;" vertex="1" parent="4SHipQYe5DLUAEDX2a7b-32">
          <mxGeometry y="30" width="140" height="30" as="geometry" />
        </mxCell>
        <mxCell id="4SHipQYe5DLUAEDX2a7b-34" value="cookies" style="text;strokeColor=none;fillColor=none;align=left;verticalAlign=middle;spacingLeft=4;spacingRight=4;overflow=hidden;points=[[0,0.5],[1,0.5]];portConstraint=eastwest;rotatable=0;whiteSpace=wrap;html=1;fontSize=16;" vertex="1" parent="4SHipQYe5DLUAEDX2a7b-32">
          <mxGeometry y="60" width="140" height="30" as="geometry" />
        </mxCell>
        <mxCell id="4SHipQYe5DLUAEDX2a7b-35" value="timeout&lt;br&gt;thread_num" style="text;strokeColor=none;fillColor=none;align=left;verticalAlign=middle;spacingLeft=4;spacingRight=4;overflow=hidden;points=[[0,0.5],[1,0.5]];portConstraint=eastwest;rotatable=0;whiteSpace=wrap;html=1;fontSize=16;" vertex="1" parent="4SHipQYe5DLUAEDX2a7b-32">
          <mxGeometry y="90" width="140" height="58" as="geometry" />
        </mxCell>
        <mxCell id="4SHipQYe5DLUAEDX2a7b-36" value="UserRegisterView&lt;br&gt;UserLogin&lt;br&gt;UserLogout&lt;br&gt;UserRankView&lt;br&gt;UserAdminView" style="rounded=1;whiteSpace=wrap;html=1;fontSize=16;" vertex="1" parent="1">
          <mxGeometry x="-309" y="-263" width="159" height="126" as="geometry" />
        </mxCell>
        <mxCell id="4SHipQYe5DLUAEDX2a7b-37" value="" style="endArrow=classic;html=1;rounded=0;fontSize=12;startSize=8;endSize=8;curved=1;exitX=0.5;exitY=0;exitDx=0;exitDy=0;entryX=0.5;entryY=1;entryDx=0;entryDy=0;" edge="1" parent="1" source="4SHipQYe5DLUAEDX2a7b-7" target="4SHipQYe5DLUAEDX2a7b-36">
          <mxGeometry width="50" height="50" relative="1" as="geometry">
            <mxPoint x="196" y="83" as="sourcePoint" />
            <mxPoint x="246" y="33" as="targetPoint" />
          </mxGeometry>
        </mxCell>
        <mxCell id="4SHipQYe5DLUAEDX2a7b-38" value="FactoryMultiHandle" style="rounded=1;whiteSpace=wrap;html=1;fontSize=16;" vertex="1" parent="1">
          <mxGeometry x="764.85" y="313" width="249.15" height="60" as="geometry" />
        </mxCell>
        <mxCell id="4SHipQYe5DLUAEDX2a7b-39" value="" style="endArrow=classic;html=1;rounded=0;fontSize=12;startSize=8;endSize=8;curved=1;exitX=1.007;exitY=-0.033;exitDx=0;exitDy=0;exitPerimeter=0;" edge="1" parent="1" source="4SHipQYe5DLUAEDX2a7b-26">
          <mxGeometry width="50" height="50" relative="1" as="geometry">
            <mxPoint x="655" y="512" as="sourcePoint" />
            <mxPoint x="764" y="340" as="targetPoint" />
          </mxGeometry>
        </mxCell>
        <mxCell id="4SHipQYe5DLUAEDX2a7b-40" value="AppMultiHandle" style="rounded=1;whiteSpace=wrap;html=1;fontSize=16;" vertex="1" parent="1">
          <mxGeometry x="207" y="-179" width="167" height="60" as="geometry" />
        </mxCell>
        <mxCell id="4SHipQYe5DLUAEDX2a7b-41" value="" style="endArrow=classic;html=1;rounded=0;fontSize=12;startSize=8;endSize=8;curved=1;entryX=0.5;entryY=1;entryDx=0;entryDy=0;exitX=0.55;exitY=0;exitDx=0;exitDy=0;exitPerimeter=0;" edge="1" parent="1" source="4SHipQYe5DLUAEDX2a7b-18" target="4SHipQYe5DLUAEDX2a7b-40">
          <mxGeometry width="50" height="50" relative="1" as="geometry">
            <mxPoint x="400" y="12" as="sourcePoint" />
            <mxPoint x="450" y="-38" as="targetPoint" />
          </mxGeometry>
        </mxCell>
        <mxCell id="4SHipQYe5DLUAEDX2a7b-42" value="FingerMultiHandle&lt;br&gt;FingerCheckHandle&lt;br&gt;FingerSingleHandle&lt;br&gt;FingerSuperSubmitHandle&lt;br&gt;FingerSingleQuery&lt;br&gt;FingerMultiAdminHandle&lt;br&gt;FingerSingerAdminHandle" style="rounded=1;whiteSpace=wrap;html=1;fontSize=16;" vertex="1" parent="1">
          <mxGeometry x="-637" y="120" width="203" height="213" as="geometry" />
        </mxCell>
        <mxCell id="4SHipQYe5DLUAEDX2a7b-43" value="" style="endArrow=classic;html=1;rounded=0;fontSize=12;startSize=8;endSize=8;curved=1;exitX=1;exitY=0.5;exitDx=0;exitDy=0;entryX=-0.029;entryY=0.092;entryDx=0;entryDy=0;entryPerimeter=0;" edge="1" parent="1" source="4SHipQYe5DLUAEDX2a7b-42" target="4SHipQYe5DLUAEDX2a7b-15">
          <mxGeometry width="50" height="50" relative="1" as="geometry">
            <mxPoint x="-114" y="312" as="sourcePoint" />
            <mxPoint x="-64" y="262" as="targetPoint" />
          </mxGeometry>
        </mxCell>
        <mxCell id="4SHipQYe5DLUAEDX2a7b-44" value="ConfigView" style="rounded=0;whiteSpace=wrap;html=1;fontSize=16;" vertex="1" parent="1">
          <mxGeometry x="-37" y="670" width="120" height="60" as="geometry" />
        </mxCell>
        <mxCell id="4SHipQYe5DLUAEDX2a7b-45" value="" style="endArrow=classic;html=1;rounded=0;fontSize=12;startSize=8;endSize=8;curved=1;exitX=0.493;exitY=1.103;exitDx=0;exitDy=0;exitPerimeter=0;" edge="1" parent="1" source="4SHipQYe5DLUAEDX2a7b-35">
          <mxGeometry width="50" height="50" relative="1" as="geometry">
            <mxPoint x="-114" y="535" as="sourcePoint" />
            <mxPoint x="16" y="669" as="targetPoint" />
          </mxGeometry>
        </mxCell>
        <mxCell id="4SHipQYe5DLUAEDX2a7b-46" value="FingerBatchAction" style="rounded=1;whiteSpace=wrap;html=1;fontSize=16;" vertex="1" parent="1">
          <mxGeometry x="-374" y="694" width="262" height="60" as="geometry" />
        </mxCell>
        <mxCell id="4SHipQYe5DLUAEDX2a7b-47" value="" style="endArrow=classic;html=1;rounded=0;fontSize=12;startSize=8;endSize=8;curved=1;" edge="1" parent="1">
          <mxGeometry width="50" height="50" relative="1" as="geometry">
            <mxPoint x="-216" y="653" as="sourcePoint" />
            <mxPoint x="-219" y="689" as="targetPoint" />
          </mxGeometry>
        </mxCell>
      </root>
    </mxGraphModel>
  </diagram>
</mxfile>
